<svg width="14" height="14" viewBox="0 0 14 14" fill="none" xmlns="http://www.w3.org/2000/svg">
<path fill-rule="evenodd" clip-rule="evenodd" d="M0.583252 1.74984C0.583252 1.42767 0.844419 1.1665 1.16659 1.1665H4.66658C5.44013 1.1665 6.182 1.47379 6.72898 2.02078C7.27596 2.56776 7.58325 3.30962 7.58325 4.08317V12.2498C7.58325 12.572 7.32208 12.8332 6.99992 12.8332C6.67775 12.8332 6.41658 12.572 6.41658 12.2498C6.41658 11.9404 6.29367 11.6437 6.07488 11.4249C5.85608 11.2061 5.55934 11.0832 5.24992 11.0832H1.16659C0.844419 11.0832 0.583252 10.822 0.583252 10.4998V1.74984ZM6.41658 10.2291V4.08317C6.41658 3.61904 6.23221 3.17392 5.90402 2.84573C5.57583 2.51754 5.13071 2.33317 4.66658 2.33317H1.74992V9.9165H5.24992C5.66305 9.9165 6.06489 10.0261 6.41658 10.2291Z" fill="#0A6046"/>
<path fill-rule="evenodd" clip-rule="evenodd" d="M7.27102 2.02078C7.818 1.47379 8.55987 1.1665 9.33341 1.1665H12.8334C13.1556 1.1665 13.4167 1.42767 13.4167 1.74984V10.4998C13.4167 10.822 13.1556 11.0832 12.8334 11.0832H8.75008C8.44066 11.0832 8.14392 11.2061 7.92512 11.4249C7.70633 11.6437 7.58341 11.9404 7.58341 12.2498C7.58341 12.572 7.32225 12.8332 7.00008 12.8332C6.67792 12.8332 6.41675 12.572 6.41675 12.2498V4.08317C6.41675 3.30962 6.72404 2.56776 7.27102 2.02078ZM7.58341 10.2291C7.93511 10.0261 8.33695 9.9165 8.75008 9.9165H12.2501V2.33317H9.33341C8.86929 2.33317 8.42417 2.51754 8.09598 2.84573C7.76779 3.17392 7.58341 3.61904 7.58341 4.08317V10.2291Z" fill="#0A6046"/>
</svg>
