<svg width="28" height="28" viewBox="0 0 28 28" fill="none" xmlns="http://www.w3.org/2000/svg">
<rect x="1" y="1" width="26" height="26" stroke="#0A6046" stroke-width="2"/>
<path fill-rule="evenodd" clip-rule="evenodd" d="M7.99998 15.3335C8.36817 15.3335 8.66665 15.632 8.66665 16.0002V18.6668C8.66665 18.8436 8.73688 19.0132 8.86191 19.1382C8.98693 19.2633 9.1565 19.3335 9.33331 19.3335H18.6666C18.8435 19.3335 19.013 19.2633 19.138 19.1382C19.2631 19.0132 19.3333 18.8436 19.3333 18.6668V16.0002C19.3333 15.632 19.6318 15.3335 20 15.3335C20.3682 15.3335 20.6666 15.632 20.6666 16.0002V18.6668C20.6666 19.1973 20.4559 19.706 20.0809 20.081C19.7058 20.4561 19.1971 20.6668 18.6666 20.6668H9.33331C8.80288 20.6668 8.29417 20.4561 7.9191 20.081C7.54403 19.706 7.33331 19.1973 7.33331 18.6668V16.0002C7.33331 15.632 7.63179 15.3335 7.99998 15.3335Z" fill="#0A6046"/>
<path fill-rule="evenodd" clip-rule="evenodd" d="M10.1953 12.1953C10.4556 11.9349 10.8777 11.9349 11.1381 12.1953L14 15.0572L16.8619 12.1953C17.1223 11.9349 17.5444 11.9349 17.8047 12.1953C18.0651 12.4556 18.0651 12.8777 17.8047 13.1381L14.4714 16.4714C14.2111 16.7318 13.7889 16.7318 13.5286 16.4714L10.1953 13.1381C9.93491 12.8777 9.93491 12.4556 10.1953 12.1953Z" fill="#0A6046"/>
<path fill-rule="evenodd" clip-rule="evenodd" d="M14 7.3335C14.3682 7.3335 14.6666 7.63197 14.6666 8.00016V16.0002C14.6666 16.3684 14.3682 16.6668 14 16.6668C13.6318 16.6668 13.3333 16.3684 13.3333 16.0002V8.00016C13.3333 7.63197 13.6318 7.3335 14 7.3335Z" fill="#0A6046"/>
</svg>
