<svg width="14" height="14" viewBox="0 0 14 14" fill="none" xmlns="http://www.w3.org/2000/svg">
<path fill-rule="evenodd" clip-rule="evenodd" d="M2.26256 1.09606C2.59075 0.76787 3.03587 0.583496 3.5 0.583496H8.16667C8.32138 0.583496 8.46975 0.644954 8.57915 0.75435L12.0791 4.25435C12.1885 4.36375 12.25 4.51212 12.25 4.66683V11.6668C12.25 12.131 12.0656 12.5761 11.7374 12.9043C11.4092 13.2325 10.9641 13.4168 10.5 13.4168H3.5C3.03587 13.4168 2.59075 13.2325 2.26256 12.9043C1.93437 12.5761 1.75 12.131 1.75 11.6668V2.3335C1.75 1.86937 1.93437 1.42425 2.26256 1.09606ZM3.5 1.75016C3.34529 1.75016 3.19692 1.81162 3.08752 1.92102C2.97812 2.03041 2.91667 2.17879 2.91667 2.3335V11.6668C2.91667 11.8215 2.97812 11.9699 3.08752 12.0793C3.19692 12.1887 3.34529 12.2502 3.5 12.2502H10.5C10.6547 12.2502 10.8031 12.1887 10.9125 12.0793C11.0219 11.9699 11.0833 11.8215 11.0833 11.6668V4.90845L7.92504 1.75016H3.5Z" fill="#0A6046"/>
<path fill-rule="evenodd" clip-rule="evenodd" d="M8.16659 0.583496C8.48875 0.583496 8.74992 0.844663 8.74992 1.16683V4.0835H11.6666C11.9888 4.0835 12.2499 4.34466 12.2499 4.66683C12.2499 4.989 11.9888 5.25016 11.6666 5.25016H8.16659C7.84442 5.25016 7.58325 4.989 7.58325 4.66683V1.16683C7.58325 0.844663 7.84442 0.583496 8.16659 0.583496Z" fill="#0A6046"/>
<path fill-rule="evenodd" clip-rule="evenodd" d="M4.08325 7.58333C4.08325 7.26117 4.34442 7 4.66659 7H9.33325C9.65542 7 9.91659 7.26117 9.91659 7.58333C9.91659 7.9055 9.65542 8.16667 9.33325 8.16667H4.66659C4.34442 8.16667 4.08325 7.9055 4.08325 7.58333Z" fill="#0A6046"/>
<path fill-rule="evenodd" clip-rule="evenodd" d="M4.08325 9.91683C4.08325 9.59466 4.34442 9.3335 4.66659 9.3335H9.33325C9.65542 9.3335 9.91659 9.59466 9.91659 9.91683C9.91659 10.239 9.65542 10.5002 9.33325 10.5002H4.66659C4.34442 10.5002 4.08325 10.239 4.08325 9.91683Z" fill="#0A6046"/>
<path fill-rule="evenodd" clip-rule="evenodd" d="M4.08325 5.24984C4.08325 4.92767 4.34442 4.6665 4.66659 4.6665H5.83325C6.15542 4.6665 6.41659 4.92767 6.41659 5.24984C6.41659 5.572 6.15542 5.83317 5.83325 5.83317H4.66659C4.34442 5.83317 4.08325 5.572 4.08325 5.24984Z" fill="#0A6046"/>
</svg>
