<svg width="28" height="28" viewBox="0 0 28 28" fill="none" xmlns="http://www.w3.org/2000/svg">
<rect x="1" y="1" width="26" height="26" stroke="#0A6046" stroke-width="2"/>
<g clip-path="url(#clip0_1786_29307)">
<path fill-rule="evenodd" clip-rule="evenodd" d="M9.33331 7.33317C9.33331 6.96498 9.63179 6.6665 9.99998 6.6665H18C18.3682 6.6665 18.6666 6.96498 18.6666 7.33317V11.9998C18.6666 12.368 18.3682 12.6665 18 12.6665C17.6318 12.6665 17.3333 12.368 17.3333 11.9998V7.99984H10.6666V11.9998C10.6666 12.368 10.3682 12.6665 9.99998 12.6665C9.63179 12.6665 9.33331 12.368 9.33331 11.9998V7.33317Z" fill="#0A6046"/>
<path fill-rule="evenodd" clip-rule="evenodd" d="M8.66669 12.6668C8.48988 12.6668 8.32031 12.7371 8.19528 12.8621C8.07026 12.9871 8.00002 13.1567 8.00002 13.3335V16.6668C8.00002 16.8436 8.07026 17.0132 8.19528 17.1382C8.32031 17.2633 8.48988 17.3335 8.66669 17.3335H10C10.3682 17.3335 10.6667 17.632 10.6667 18.0002C10.6667 18.3684 10.3682 18.6668 10 18.6668H8.66669C8.13625 18.6668 7.62755 18.4561 7.25247 18.081C6.8774 17.706 6.66669 17.1973 6.66669 16.6668V13.3335C6.66669 12.8031 6.8774 12.2944 7.25247 11.9193C7.62755 11.5442 8.13625 11.3335 8.66669 11.3335H19.3334C19.8638 11.3335 20.3725 11.5442 20.7476 11.9193C21.1226 12.2944 21.3334 12.8031 21.3334 13.3335V16.6668C21.3334 17.1973 21.1226 17.706 20.7476 18.081C20.3725 18.4561 19.8638 18.6668 19.3334 18.6668H18C17.6318 18.6668 17.3334 18.3684 17.3334 18.0002C17.3334 17.632 17.6318 17.3335 18 17.3335H19.3334C19.5102 17.3335 19.6797 17.2633 19.8048 17.1382C19.9298 17.0132 20 16.8436 20 16.6668V13.3335C20 13.1567 19.9298 12.9871 19.8048 12.8621C19.6797 12.7371 19.5102 12.6668 19.3334 12.6668H8.66669Z" fill="#0A6046"/>
<path fill-rule="evenodd" clip-rule="evenodd" d="M9.33331 15.3332C9.33331 14.965 9.63179 14.6665 9.99998 14.6665H18C18.3682 14.6665 18.6666 14.965 18.6666 15.3332V20.6665C18.6666 21.0347 18.3682 21.3332 18 21.3332H9.99998C9.63179 21.3332 9.33331 21.0347 9.33331 20.6665V15.3332ZM10.6666 15.9998V19.9998H17.3333V15.9998H10.6666Z" fill="#0A6046"/>
</g>
<defs>
<clipPath id="clip0_1786_29307">
<rect width="16" height="16" fill="white" transform="translate(6 6)"/>
</clipPath>
</defs>
</svg>
