<svg width="14" height="14" viewBox="0 0 14 14" fill="none" xmlns="http://www.w3.org/2000/svg">
<g clip-path="url(#clip0_1828_5522)">
<path fill-rule="evenodd" clip-rule="evenodd" d="M9.76694 1.79997C9.59346 1.79997 9.42708 1.86888 9.30442 1.99155L2.127 9.16897L1.81865 10.4024L3.05204 10.094L10.2295 2.91659C10.2902 2.85585 10.3384 2.78374 10.3713 2.70439C10.4041 2.62503 10.421 2.53997 10.421 2.45407C10.421 2.36817 10.4041 2.28312 10.3713 2.20376C10.3384 2.1244 10.2902 2.05229 10.2295 1.99155C10.1687 1.93081 10.0966 1.88263 10.0173 1.84976C9.93789 1.81689 9.85284 1.79997 9.76694 1.79997ZM8.47946 1.16659C8.82092 0.825131 9.28404 0.633301 9.76694 0.633301C10.006 0.633301 10.2428 0.680396 10.4637 0.771899C10.6846 0.863401 10.8853 0.997518 11.0544 1.16659C11.2235 1.33567 11.3576 1.53639 11.4491 1.75729C11.5406 1.9782 11.5877 2.21496 11.5877 2.45407C11.5877 2.69318 11.5406 2.92994 11.4491 3.15085C11.3576 3.37176 11.2235 3.57248 11.0544 3.74155L3.76275 11.0332C3.68799 11.108 3.59432 11.161 3.49175 11.1867L1.15842 11.77C0.959633 11.8197 0.749349 11.7614 0.60446 11.6165C0.459572 11.4717 0.401327 11.2614 0.451023 11.0626L1.03436 8.72926C1.06 8.62669 1.11303 8.53302 1.18779 8.45826L8.47946 1.16659Z" fill="#0A6046"/>
<path fill-rule="evenodd" clip-rule="evenodd" d="M11.9983 9.90453C12.2627 8.51227 11.9846 7.59824 11.2541 7.45949C10.5575 7.32716 9.7011 8.00033 9.35873 9.80278C9.20522 10.6109 9.22026 11.3996 9.36894 12.0701C9.15854 12.1267 8.9296 12.1383 8.6823 12.0914C8.4497 12.0472 8.2389 11.8806 8.10856 11.6086C8.27523 11.333 8.40756 10.9927 8.48392 10.5907C8.55727 10.2045 8.75213 9.17869 8.05223 9.04574C7.35233 8.9128 7.16436 9.90239 7.08412 10.3248C7.00893 10.7207 7.00712 11.0814 7.06154 11.4019C6.97289 11.478 6.89794 11.5086 6.86061 11.5015C6.78946 11.488 6.67039 11.3042 6.67202 11.2219C6.72137 10.962 6.55238 10.7115 6.29482 10.6626C6.03726 10.6136 5.78817 10.7848 5.73882 11.0446C5.67302 11.391 5.1372 12.4285 4.62556 12.5056C4.11392 12.5827 1.65857 12.5056 1.65857 12.5056C1.38977 12.5056 1.17188 12.7235 1.17188 12.9923C1.17188 13.261 1.38977 13.4789 1.65857 13.4789C1.65857 13.4789 3.94994 13.5092 4.62744 13.4764C5.30494 13.4435 5.87602 12.8325 6.23806 12.2352C6.55453 12.4843 7.00428 12.5343 7.42061 12.3035C7.69727 12.7011 8.09009 12.9542 8.50349 13.0327C8.92833 13.1134 9.32496 13.0868 9.68807 12.9759C9.96494 13.5098 10.3605 13.8731 10.8388 13.9639C12.6254 14.3033 13.6299 12.5001 13.6719 12.4232C13.7982 12.1909 13.7144 11.9 13.4844 11.7734C13.2544 11.6468 12.9656 11.7322 12.8393 11.9644C12.8323 11.977 12.1334 13.2346 11.0176 13.0226C10.8596 12.9926 10.6806 12.8191 10.5303 12.5299C11.2827 11.9411 11.7999 10.9492 11.9983 9.90453ZM11.0651 9.72727C10.9548 10.3081 10.6754 11.0126 10.2326 11.5064C10.1765 11.0688 10.1832 10.5526 10.2919 9.98004C10.5156 8.80265 10.9369 8.45792 11.0537 8.4077C11.1139 8.51227 11.2227 8.8977 11.0651 9.72727Z" fill="#0A6046"/>
</g>
<defs>
<clipPath id="clip0_1828_5522">
<rect width="14" height="14" fill="white"/>
</clipPath>
</defs>
</svg>
