<svg width="28" height="28" viewBox="0 0 28 28" fill="none" xmlns="http://www.w3.org/2000/svg">
<rect x="1" y="1" width="26" height="26" stroke="#0A6046" stroke-width="2"/>
<path fill-rule="evenodd" clip-rule="evenodd" d="M14 6.6665C14.2537 6.6665 14.4855 6.81055 14.5978 7.03809L16.5028 10.8975L20.7631 11.5202C21.0141 11.5569 21.2226 11.7329 21.3008 11.9742C21.3791 12.2156 21.3135 12.4804 21.1318 12.6574L18.0497 15.6594L18.777 19.9005C18.8199 20.1506 18.7171 20.4034 18.5118 20.5525C18.3065 20.7017 18.0343 20.7213 17.8097 20.6032L14 18.5997L10.1903 20.6032C9.96567 20.7213 9.69347 20.7017 9.48816 20.5525C9.28284 20.4034 9.18001 20.1506 9.22291 19.9005L9.9503 15.6594L6.86816 12.6574C6.68641 12.4804 6.6209 12.2156 6.69915 11.9742C6.7774 11.7329 6.98585 11.5569 7.23689 11.5202L11.4971 10.8975L13.4022 7.03809C13.5145 6.81055 13.7462 6.6665 14 6.6665ZM14 8.83934L12.5378 11.8016C12.4408 11.9982 12.2533 12.1345 12.0364 12.1662L8.76559 12.6442L11.1318 14.9489C11.289 15.1021 11.3608 15.3228 11.3237 15.5392L10.7654 18.7943L13.6897 17.2565C13.8839 17.1543 14.116 17.1543 14.3103 17.2565L17.2345 18.7943L16.6762 15.5392C16.6391 15.3228 16.7109 15.1021 16.8682 14.9489L19.2344 12.6442L15.9636 12.1662C15.7467 12.1345 15.5592 11.9982 15.4622 11.8016L14 8.83934Z" fill="#0A6046"/>
</svg>
