<svg width="20" height="21" viewBox="0 0 20 21" fill="none" xmlns="http://www.w3.org/2000/svg">
<path fill-rule="evenodd" clip-rule="evenodd" d="M8.77348 2.40259C9.14789 2.19179 9.57031 2.08105 9.99998 2.08105C10.4296 2.08105 10.8521 2.19179 11.2265 2.40259C11.6009 2.61338 11.9146 2.91712 12.1375 3.28448L12.1399 3.28844L19.1982 15.0718L19.205 15.0833C19.4233 15.4613 19.5388 15.8899 19.54 16.3264C19.5412 16.763 19.4281 17.1922 19.2119 17.5714C18.9958 17.9507 18.6841 18.2667 18.3078 18.4881C17.9316 18.7095 17.504 18.8285 17.0675 18.8333L17.0583 18.8334L2.93248 18.8333C2.49598 18.8285 2.06834 18.7095 1.69212 18.4881C1.31589 18.2667 1.00419 17.9507 0.788018 17.5714C0.571848 17.1922 0.458748 16.763 0.459971 16.3264C0.461193 15.8899 0.576695 15.4613 0.794985 15.0833L0.801754 15.0718L7.86247 3.28448C8.0853 2.91711 8.39907 2.61338 8.77348 2.40259ZM9.99998 3.74772C9.85675 3.74772 9.71595 3.78463 9.59114 3.8549C9.46691 3.92485 9.3627 4.02549 9.28848 4.14721L2.23555 15.9215C2.16457 16.0464 2.12703 16.1874 2.12663 16.3311C2.12622 16.4766 2.16392 16.6197 2.23598 16.7461C2.30804 16.8725 2.41194 16.9779 2.53735 17.0517C2.66166 17.1248 2.80281 17.1644 2.94697 17.1667H17.053C17.1971 17.1644 17.3383 17.1248 17.4626 17.0517C17.588 16.9779 17.6919 16.8725 17.764 16.7461C17.836 16.6197 17.8737 16.4766 17.8733 16.3311C17.8729 16.1874 17.8354 16.0464 17.7644 15.9215L10.7125 4.14886C10.7121 4.14831 10.7118 4.14776 10.7115 4.14721C10.6373 4.02549 10.533 3.92485 10.4088 3.8549C10.284 3.78463 10.1432 3.74772 9.99998 3.74772Z" fill="#344054"/>
<path fill-rule="evenodd" clip-rule="evenodd" d="M10.0003 7.1665C10.4606 7.1665 10.8337 7.5396 10.8337 7.99984V11.3332C10.8337 11.7934 10.4606 12.1665 10.0003 12.1665C9.54009 12.1665 9.16699 11.7934 9.16699 11.3332V7.99984C9.16699 7.5396 9.54009 7.1665 10.0003 7.1665Z" fill="#344054"/>
<path fill-rule="evenodd" clip-rule="evenodd" d="M9.16699 14.6668C9.16699 14.2066 9.54009 13.8335 10.0003 13.8335H10.01C10.4703 13.8335 10.8434 14.2066 10.8434 14.6668C10.8434 15.1271 10.4703 15.5002 10.01 15.5002H10.0003C9.54009 15.5002 9.16699 15.1271 9.16699 14.6668Z" fill="#344054"/>
</svg>
