<svg width="20" height="21" viewBox="0 0 20 21" fill="none" xmlns="http://www.w3.org/2000/svg">
<path fill-rule="evenodd" clip-rule="evenodd" d="M9.1665 3.83317C5.94484 3.83317 3.33317 6.44484 3.33317 9.6665C3.33317 12.8882 5.94484 15.4998 9.1665 15.4998C12.3882 15.4998 14.9998 12.8882 14.9998 9.6665C14.9998 6.44484 12.3882 3.83317 9.1665 3.83317ZM1.6665 9.6665C1.6665 5.52437 5.02437 2.1665 9.1665 2.1665C13.3086 2.1665 16.6665 5.52437 16.6665 9.6665C16.6665 13.8086 13.3086 17.1665 9.1665 17.1665C5.02437 17.1665 1.6665 13.8086 1.6665 9.6665Z" fill="#EAECF0"/>
<path fill-rule="evenodd" clip-rule="evenodd" d="M13.2856 13.7856C13.611 13.4601 14.1387 13.4601 14.4641 13.7856L18.0891 17.4106C18.4145 17.736 18.4145 18.2637 18.0891 18.5891C17.7637 18.9145 17.236 18.9145 16.9106 18.5891L13.2856 14.9641C12.9601 14.6387 12.9601 14.111 13.2856 13.7856Z" fill="#EAECF0"/>
<path fill-rule="evenodd" clip-rule="evenodd" d="M9.16683 6.3335C9.62707 6.3335 10.0002 6.70659 10.0002 7.16683V12.1668C10.0002 12.6271 9.62707 13.0002 9.16683 13.0002C8.70659 13.0002 8.3335 12.6271 8.3335 12.1668V7.16683C8.3335 6.70659 8.70659 6.3335 9.16683 6.3335Z" fill="#EAECF0"/>
<path fill-rule="evenodd" clip-rule="evenodd" d="M5.8335 9.66683C5.8335 9.20659 6.20659 8.8335 6.66683 8.8335H11.6668C12.1271 8.8335 12.5002 9.20659 12.5002 9.66683C12.5002 10.1271 12.1271 10.5002 11.6668 10.5002H6.66683C6.20659 10.5002 5.8335 10.1271 5.8335 9.66683Z" fill="#EAECF0"/>
</svg>
