<svg width="20" height="21" viewBox="0 0 20 21" fill="none" xmlns="http://www.w3.org/2000/svg">
<path fill-rule="evenodd" clip-rule="evenodd" d="M9.16699 3.83317C5.94533 3.83317 3.33366 6.44484 3.33366 9.6665C3.33366 12.8882 5.94533 15.4998 9.16699 15.4998C12.3887 15.4998 15.0003 12.8882 15.0003 9.6665C15.0003 6.44484 12.3887 3.83317 9.16699 3.83317ZM1.66699 9.6665C1.66699 5.52437 5.02486 2.1665 9.16699 2.1665C13.3091 2.1665 16.667 5.52437 16.667 9.6665C16.667 13.8086 13.3091 17.1665 9.16699 17.1665C5.02486 17.1665 1.66699 13.8086 1.66699 9.6665Z" fill="#EAECF0"/>
<path fill-rule="evenodd" clip-rule="evenodd" d="M13.2861 13.7856C13.6115 13.4601 14.1391 13.4601 14.4646 13.7856L18.0896 17.4106C18.415 17.736 18.415 18.2637 18.0896 18.5891C17.7641 18.9145 17.2365 18.9145 16.9111 18.5891L13.2861 14.9641C12.9606 14.6387 12.9606 14.111 13.2861 13.7856Z" fill="#EAECF0"/>
<path fill-rule="evenodd" clip-rule="evenodd" d="M5.83301 9.66683C5.83301 9.20659 6.2061 8.8335 6.66634 8.8335H11.6663C12.1266 8.8335 12.4997 9.20659 12.4997 9.66683C12.4997 10.1271 12.1266 10.5002 11.6663 10.5002H6.66634C6.2061 10.5002 5.83301 10.1271 5.83301 9.66683Z" fill="#EAECF0"/>
</svg>
