<svg width="400" height="200" viewBox="0 0 400 200" fill="none" xmlns="http://www.w3.org/2000/svg">
<rect width="400" height="200" fill="url(#paint0_linear_1443_49442)"/>
<path fill-rule="evenodd" clip-rule="evenodd" d="M121.795 38.9299C115.959 38.9299 111.227 43.6709 111.227 49.5191V67.9443C111.227 69.1139 110.281 70.0621 109.114 70.0621C107.946 70.0621 107 69.1139 107 67.9443V49.5191C107 41.3316 113.624 34.6943 121.795 34.6943H137.123C138.29 34.6943 139.237 35.6425 139.237 36.8121C139.237 37.9818 138.29 38.9299 137.123 38.9299H121.795ZM260.763 36.8121C260.763 35.6425 261.71 34.6943 262.877 34.6943H278.205C286.376 34.6943 293 41.3316 293 49.5191V67.9443C293 69.1139 292.054 70.0621 290.886 70.0621C289.719 70.0621 288.773 69.1139 288.773 67.9443V49.5191C288.773 43.6709 284.041 38.9299 278.205 38.9299H262.877C261.71 38.9299 260.763 37.9818 260.763 36.8121ZM109.114 128.091C110.281 128.091 111.227 129.039 111.227 130.209V148.634C111.227 154.482 115.959 159.223 121.795 159.223H137.123C138.29 159.223 139.237 160.171 139.237 161.341C139.237 162.51 138.29 163.459 137.123 163.459H121.795C113.624 163.459 107 156.821 107 148.634V130.209C107 129.039 107.946 128.091 109.114 128.091ZM290.886 128.091C292.054 128.091 293 129.039 293 130.209V148.634C293 156.821 286.376 163.459 278.205 163.459H262.877C261.71 163.459 260.763 162.51 260.763 161.341C260.763 160.171 261.71 159.223 262.877 159.223H278.205C284.041 159.223 288.773 154.482 288.773 148.634V130.209C288.773 129.039 289.719 128.091 290.886 128.091Z" fill="#21AB82"/>
<path d="M269.5 59C269.5 57.067 267.933 55.5 266 55.5H135C133.067 55.5 131.5 57.067 131.5 59C131.5 71.7464 131.5 84.4927 131.5 97.2391C131.5 111.493 131.5 125.746 131.5 140C131.5 141.933 133.067 143.5 135 143.5H266C267.933 143.5 269.5 141.933 269.5 140C269.5 121.25 269.5 102.5 269.5 83.75L269.5 59Z" fill="#EAECF0" stroke="#98A2B3" stroke-miterlimit="10"/>
<path d="M182.453 116.861H136.657V133.247H182.453V116.861Z" fill="#D0D5DD"/>
<path fill-rule="evenodd" clip-rule="evenodd" d="M138.234 118.453C137.819 118.244 137.443 118.054 136.657 118.054V117.189C137.616 117.189 138.114 117.439 138.576 117.672L138.579 117.674C138.995 117.883 139.378 118.076 140.179 118.076C140.978 118.076 141.355 117.885 141.766 117.676L141.773 117.673C142.233 117.439 142.73 117.189 143.697 117.189C144.664 117.189 145.162 117.439 145.623 117.673L145.629 117.676C146.042 117.885 146.42 118.076 147.219 118.076C148.019 118.076 148.399 117.884 148.813 117.675L148.818 117.672C149.278 117.439 149.776 117.189 150.739 117.189C151.702 117.189 152.2 117.439 152.661 117.672L152.666 117.675C153.08 117.884 153.461 118.076 154.261 118.076C155.061 118.076 155.441 117.884 155.855 117.675L155.86 117.672C156.321 117.439 156.82 117.189 157.783 117.189C158.747 117.189 159.248 117.439 159.71 117.672L159.717 117.675C160.132 117.885 160.512 118.076 161.305 118.076C162.099 118.076 162.478 117.885 162.894 117.676L162.901 117.672C163.364 117.439 163.865 117.189 164.83 117.189C165.794 117.189 166.295 117.439 166.758 117.672L166.764 117.676C167.179 117.885 167.558 118.076 168.352 118.076C169.145 118.076 169.525 117.885 169.94 117.675L169.947 117.672C170.409 117.439 170.91 117.189 171.874 117.189C172.837 117.189 173.339 117.439 173.802 117.672L173.808 117.675C174.224 117.885 174.604 118.076 175.398 118.076C176.192 118.076 176.572 117.885 176.989 117.675L176.996 117.672C177.46 117.439 177.962 117.189 178.927 117.189C179.891 117.189 180.393 117.439 180.856 117.672L180.862 117.675C181.278 117.885 181.658 118.076 182.453 118.076V118.942C181.489 118.942 180.987 118.692 180.524 118.459L180.518 118.455C180.102 118.246 179.722 118.054 178.927 118.054C178.132 118.054 177.75 118.246 177.333 118.456L177.327 118.459C176.863 118.692 176.361 118.942 175.398 118.942C174.435 118.942 173.933 118.692 173.47 118.459L173.464 118.455C173.048 118.246 172.667 118.054 171.874 118.054C171.08 118.054 170.701 118.246 170.285 118.455L170.279 118.458C169.816 118.692 169.315 118.942 168.352 118.942C167.388 118.942 166.888 118.692 166.425 118.458L166.419 118.455C166.004 118.246 165.625 118.054 164.83 118.054C164.035 118.054 163.654 118.246 163.239 118.455L163.233 118.459C162.77 118.692 162.269 118.942 161.305 118.942C160.342 118.942 159.841 118.692 159.378 118.458L159.372 118.455C158.956 118.246 158.577 118.054 157.783 118.054C156.991 118.054 156.614 118.245 156.201 118.454L156.193 118.458C155.731 118.692 155.23 118.942 154.261 118.942C153.293 118.942 152.791 118.692 152.329 118.458L152.32 118.454C151.907 118.245 151.53 118.054 150.739 118.054C149.948 118.054 149.572 118.245 149.159 118.454L149.15 118.458C148.689 118.692 148.188 118.942 147.219 118.942C146.25 118.942 145.751 118.692 145.29 118.458L145.282 118.454C144.87 118.245 144.493 118.054 143.697 118.054C142.901 118.054 142.526 118.245 142.115 118.454L142.107 118.458C141.647 118.692 141.148 118.942 140.179 118.942C139.211 118.942 138.707 118.692 138.244 118.458L138.234 118.453Z" fill="#98A2B3"/>
<path fill-rule="evenodd" clip-rule="evenodd" d="M138.234 120.45C137.819 120.24 137.443 120.05 136.657 120.05V119.185C137.616 119.185 138.114 119.435 138.576 119.668L138.579 119.67C138.995 119.879 139.378 120.072 140.179 120.072C140.978 120.072 141.355 119.881 141.766 119.672L141.773 119.669C142.233 119.435 142.73 119.185 143.697 119.185C144.664 119.185 145.162 119.435 145.623 119.669L145.629 119.672C146.042 119.881 146.42 120.072 147.219 120.072C148.019 120.072 148.399 119.88 148.813 119.671L148.818 119.668C149.278 119.435 149.776 119.185 150.739 119.185C151.702 119.185 152.2 119.435 152.661 119.668L152.666 119.671C153.08 119.88 153.461 120.072 154.261 120.072C155.061 120.072 155.441 119.88 155.855 119.671L155.86 119.668C156.321 119.435 156.82 119.185 157.783 119.185C158.747 119.185 159.248 119.435 159.71 119.668L159.717 119.671C160.132 119.881 160.512 120.072 161.305 120.072C162.099 120.072 162.478 119.881 162.894 119.672L162.901 119.668C163.364 119.435 163.865 119.185 164.83 119.185C165.794 119.185 166.295 119.435 166.758 119.668L166.764 119.672C167.179 119.881 167.558 120.072 168.352 120.072C169.145 120.072 169.525 119.881 169.94 119.671L169.947 119.668C170.409 119.435 170.91 119.185 171.874 119.185C172.837 119.185 173.339 119.435 173.802 119.668L173.808 119.671C174.224 119.881 174.604 120.072 175.398 120.072C176.192 120.072 176.572 119.881 176.989 119.671L176.996 119.668C177.46 119.435 177.962 119.185 178.927 119.185C179.891 119.185 180.393 119.435 180.856 119.668L180.862 119.671C181.278 119.881 181.658 120.072 182.453 120.072V120.938C181.489 120.938 180.987 120.688 180.524 120.455L180.518 120.451C180.102 120.242 179.722 120.05 178.927 120.05C178.132 120.05 177.75 120.242 177.333 120.452L177.327 120.455C176.863 120.688 176.361 120.938 175.398 120.938C174.435 120.938 173.933 120.688 173.47 120.455L173.464 120.451C173.048 120.242 172.667 120.05 171.874 120.05C171.08 120.05 170.701 120.242 170.285 120.451L170.279 120.454C169.816 120.688 169.315 120.938 168.352 120.938C167.388 120.938 166.888 120.688 166.425 120.454L166.419 120.451C166.004 120.242 165.624 120.05 164.83 120.05C164.035 120.05 163.654 120.242 163.239 120.451L163.233 120.455C162.77 120.688 162.269 120.938 161.305 120.938C160.342 120.938 159.841 120.688 159.378 120.454L159.372 120.451C158.956 120.242 158.577 120.05 157.783 120.05C156.991 120.05 156.614 120.241 156.201 120.45L156.193 120.454C155.731 120.688 155.23 120.938 154.261 120.938C153.293 120.938 152.791 120.688 152.329 120.454L152.32 120.45C151.907 120.241 151.53 120.05 150.739 120.05C149.948 120.05 149.572 120.241 149.159 120.45L149.15 120.454C148.689 120.688 148.188 120.938 147.219 120.938C146.25 120.938 145.751 120.688 145.29 120.454L145.282 120.45C144.87 120.241 144.493 120.05 143.697 120.05C142.901 120.05 142.526 120.241 142.115 120.45L142.107 120.454C141.647 120.688 141.148 120.938 140.179 120.938C139.211 120.938 138.707 120.688 138.244 120.454L138.234 120.45Z" fill="#98A2B3"/>
<path fill-rule="evenodd" clip-rule="evenodd" d="M138.234 122.446C137.819 122.236 137.443 122.047 136.657 122.047V121.181C137.616 121.181 138.114 121.431 138.576 121.664L138.579 121.666C138.995 121.875 139.378 122.068 140.179 122.068C140.978 122.068 141.355 121.877 141.766 121.668L141.773 121.665C142.233 121.431 142.73 121.181 143.697 121.181C144.664 121.181 145.162 121.431 145.623 121.665L145.629 121.668C146.042 121.877 146.42 122.068 147.219 122.068C148.019 122.068 148.399 121.876 148.813 121.667L148.818 121.664C149.278 121.431 149.776 121.181 150.739 121.181C151.702 121.181 152.2 121.431 152.661 121.664L152.666 121.667C153.08 121.876 153.461 122.068 154.261 122.068C155.061 122.068 155.441 121.876 155.855 121.667L155.86 121.664C156.321 121.431 156.82 121.181 157.783 121.181C158.747 121.181 159.248 121.431 159.71 121.664L159.717 121.667C160.132 121.877 160.512 122.068 161.305 122.068C162.099 122.068 162.478 121.877 162.894 121.668L162.901 121.664C163.364 121.431 163.865 121.181 164.83 121.181C165.794 121.181 166.295 121.431 166.758 121.664L166.764 121.668C167.179 121.877 167.558 122.068 168.352 122.068C169.145 122.068 169.525 121.877 169.94 121.667L169.947 121.664C170.409 121.431 170.91 121.181 171.874 121.181C172.837 121.181 173.339 121.431 173.802 121.664L173.808 121.667C174.224 121.877 174.604 122.068 175.398 122.068C176.192 122.068 176.572 121.877 176.989 121.667L176.996 121.664C177.46 121.431 177.962 121.181 178.927 121.181C179.891 121.181 180.393 121.431 180.856 121.664L180.862 121.667C181.278 121.877 181.658 122.068 182.453 122.068V122.934C181.489 122.934 180.987 122.684 180.524 122.451L180.518 122.447C180.102 122.238 179.722 122.047 178.927 122.047C178.132 122.047 177.75 122.238 177.333 122.448L177.327 122.451C176.863 122.684 176.361 122.934 175.398 122.934C174.435 122.934 173.933 122.684 173.47 122.451L173.464 122.447C173.048 122.238 172.667 122.047 171.874 122.047C171.08 122.047 170.701 122.238 170.285 122.447L170.279 122.451C169.816 122.684 169.315 122.934 168.352 122.934C167.388 122.934 166.888 122.684 166.425 122.45L166.419 122.447C166.004 122.238 165.624 122.047 164.83 122.047C164.035 122.047 163.654 122.238 163.239 122.448L163.233 122.451C162.77 122.684 162.269 122.934 161.305 122.934C160.342 122.934 159.841 122.684 159.378 122.451L159.372 122.447C158.956 122.238 158.577 122.047 157.783 122.047C156.991 122.047 156.614 122.237 156.201 122.446L156.193 122.45C155.731 122.684 155.23 122.934 154.261 122.934C153.293 122.934 152.791 122.684 152.329 122.45L152.32 122.446C151.907 122.237 151.53 122.047 150.739 122.047C149.948 122.047 149.572 122.237 149.159 122.446L149.15 122.45C148.689 122.684 148.188 122.934 147.219 122.934C146.25 122.934 145.751 122.684 145.29 122.45L145.282 122.446C144.87 122.237 144.493 122.047 143.697 122.047C142.901 122.047 142.526 122.237 142.115 122.446L142.107 122.45C141.647 122.684 141.148 122.934 140.179 122.934C139.211 122.934 138.707 122.684 138.244 122.451L138.234 122.446Z" fill="#98A2B3"/>
<path fill-rule="evenodd" clip-rule="evenodd" d="M138.234 124.442C137.819 124.232 137.443 124.043 136.657 124.043V123.177C137.616 123.177 138.114 123.427 138.576 123.66L138.579 123.662C138.995 123.871 139.378 124.064 140.179 124.064C140.978 124.064 141.355 123.873 141.766 123.664L141.773 123.661C142.233 123.427 142.73 123.177 143.697 123.177C144.664 123.177 145.162 123.427 145.623 123.661L145.629 123.664C146.042 123.873 146.42 124.064 147.219 124.064C148.019 124.064 148.399 123.872 148.813 123.663L148.818 123.661C149.278 123.427 149.776 123.177 150.739 123.177C151.702 123.177 152.2 123.427 152.661 123.66L152.666 123.663C153.08 123.872 153.461 124.064 154.261 124.064C155.061 124.064 155.441 123.872 155.855 123.663L155.86 123.66C156.321 123.427 156.82 123.177 157.783 123.177C158.747 123.177 159.248 123.427 159.71 123.66L159.717 123.663C160.132 123.873 160.512 124.064 161.305 124.064C162.099 124.064 162.478 123.873 162.894 123.664L162.901 123.66C163.364 123.427 163.865 123.177 164.83 123.177C165.794 123.177 166.295 123.427 166.758 123.66L166.764 123.664C167.179 123.873 167.558 124.064 168.352 124.064C169.145 124.064 169.525 123.873 169.94 123.663L169.947 123.66C170.409 123.427 170.91 123.177 171.874 123.177C172.837 123.177 173.339 123.427 173.802 123.66L173.808 123.663C174.224 123.873 174.604 124.064 175.398 124.064C176.192 124.064 176.572 123.873 176.989 123.663L176.996 123.66C177.46 123.427 177.962 123.177 178.927 123.177C179.891 123.177 180.393 123.427 180.856 123.66L180.862 123.663C181.278 123.873 181.658 124.064 182.453 124.064V124.93C181.489 124.93 180.987 124.68 180.524 124.447L180.518 124.443C180.102 124.234 179.722 124.043 178.927 124.043C178.132 124.043 177.75 124.234 177.333 124.444L177.327 124.447C176.863 124.68 176.361 124.93 175.398 124.93C174.435 124.93 173.933 124.68 173.47 124.447L173.464 124.443C173.048 124.234 172.667 124.043 171.874 124.043C171.08 124.043 170.701 124.234 170.285 124.443L170.279 124.447C169.816 124.68 169.315 124.93 168.352 124.93C167.388 124.93 166.888 124.68 166.425 124.447L166.419 124.443C166.004 124.234 165.624 124.043 164.83 124.043C164.035 124.043 163.654 124.234 163.239 124.444L163.233 124.447C162.77 124.68 162.269 124.93 161.305 124.93C160.342 124.93 159.841 124.68 159.378 124.447L159.372 124.443C158.956 124.234 158.577 124.043 157.783 124.043C156.991 124.043 156.614 124.233 156.201 124.442L156.193 124.446C155.731 124.68 155.23 124.93 154.261 124.93C153.293 124.93 152.791 124.68 152.329 124.446L152.32 124.442C151.907 124.233 151.53 124.043 150.739 124.043C149.948 124.043 149.572 124.233 149.159 124.442L149.15 124.446C148.689 124.68 148.188 124.93 147.219 124.93C146.25 124.93 145.751 124.68 145.29 124.446L145.282 124.442C144.87 124.233 144.493 124.043 143.697 124.043C142.901 124.043 142.526 124.233 142.115 124.442L142.107 124.446C141.647 124.68 141.148 124.93 140.179 124.93C139.211 124.93 138.707 124.68 138.244 124.447L138.234 124.442Z" fill="#98A2B3"/>
<path fill-rule="evenodd" clip-rule="evenodd" d="M138.234 126.44C137.819 126.231 137.443 126.041 136.657 126.041V125.175C137.616 125.175 138.114 125.426 138.576 125.659L138.579 125.66C138.995 125.87 139.378 126.063 140.179 126.063C140.978 126.063 141.355 125.871 141.766 125.662L141.773 125.659C142.233 125.426 142.73 125.175 143.697 125.175C144.664 125.175 145.162 125.426 145.623 125.659L145.629 125.662C146.042 125.871 146.42 126.063 147.219 126.063C148.019 126.063 148.399 125.871 148.813 125.661L148.818 125.659C149.278 125.426 149.776 125.175 150.739 125.175C151.702 125.175 152.2 125.426 152.661 125.659L152.666 125.661C153.08 125.871 153.461 126.063 154.261 126.063C155.061 126.063 155.441 125.871 155.855 125.661L155.86 125.659C156.321 125.426 156.82 125.175 157.783 125.175C158.747 125.175 159.248 125.426 159.71 125.659L159.717 125.662C160.132 125.871 160.512 126.063 161.305 126.063C162.099 126.063 162.478 125.871 162.894 125.662L162.901 125.659C163.364 125.425 163.865 125.175 164.83 125.175C165.794 125.175 166.295 125.425 166.758 125.659L166.764 125.662C167.179 125.871 167.558 126.063 168.352 126.063C169.145 126.063 169.525 125.871 169.94 125.662L169.947 125.659C170.409 125.426 170.91 125.175 171.874 125.175C172.837 125.175 173.339 125.425 173.802 125.659L173.808 125.662C174.224 125.871 174.604 126.063 175.398 126.063C176.192 126.063 176.572 125.871 176.989 125.662L176.996 125.658C177.46 125.425 177.962 125.175 178.927 125.175C179.891 125.175 180.393 125.425 180.856 125.659L180.862 125.662C181.278 125.871 181.658 126.063 182.453 126.063V126.929C181.489 126.929 180.987 126.678 180.524 126.445L180.518 126.442C180.102 126.232 179.722 126.041 178.927 126.041C178.132 126.041 177.75 126.233 177.333 126.442L177.327 126.445C176.863 126.678 176.361 126.929 175.398 126.929C174.435 126.929 173.933 126.678 173.47 126.445L173.464 126.442C173.048 126.232 172.667 126.041 171.874 126.041C171.08 126.041 170.701 126.232 170.285 126.442L170.279 126.445C169.816 126.678 169.315 126.929 168.352 126.929C167.388 126.929 166.888 126.678 166.425 126.445L166.419 126.442C166.004 126.232 165.624 126.041 164.83 126.041C164.035 126.041 163.654 126.233 163.239 126.442L163.233 126.445C162.77 126.678 162.269 126.929 161.305 126.929C160.342 126.929 159.841 126.678 159.378 126.445L159.372 126.442C158.956 126.232 158.577 126.041 157.783 126.041C156.991 126.041 156.614 126.232 156.201 126.441L156.193 126.445C155.731 126.678 155.23 126.929 154.261 126.929C153.293 126.929 152.791 126.678 152.329 126.445L152.32 126.44C151.907 126.231 151.53 126.041 150.739 126.041C149.948 126.041 149.572 126.231 149.159 126.44L149.15 126.445C148.689 126.678 148.188 126.929 147.219 126.929C146.25 126.929 145.751 126.678 145.29 126.445L145.282 126.441C144.87 126.232 144.493 126.041 143.697 126.041C142.901 126.041 142.526 126.232 142.115 126.441L142.107 126.444C141.647 126.678 141.148 126.929 140.179 126.929C139.211 126.929 138.707 126.679 138.244 126.445L138.234 126.44Z" fill="#98A2B3"/>
<path fill-rule="evenodd" clip-rule="evenodd" d="M138.234 128.436C137.819 128.227 137.443 128.037 136.657 128.037V127.171C137.616 127.171 138.114 127.422 138.576 127.655L138.579 127.656C138.995 127.866 139.378 128.059 140.179 128.059C140.978 128.059 141.355 127.867 141.766 127.658L141.773 127.655C142.233 127.422 142.73 127.171 143.697 127.171C144.664 127.171 145.162 127.422 145.623 127.655L145.629 127.658C146.042 127.867 146.42 128.059 147.219 128.059C148.019 128.059 148.399 127.867 148.813 127.657L148.818 127.655C149.278 127.422 149.776 127.171 150.739 127.171C151.702 127.171 152.2 127.422 152.661 127.655L152.666 127.657C153.08 127.867 153.461 128.059 154.261 128.059C155.061 128.059 155.441 127.867 155.855 127.657L155.86 127.655C156.321 127.422 156.82 127.171 157.783 127.171C158.747 127.171 159.248 127.422 159.71 127.655L159.717 127.658C160.132 127.867 160.512 128.059 161.305 128.059C162.099 128.059 162.478 127.867 162.894 127.658L162.901 127.655C163.364 127.421 163.865 127.171 164.83 127.171C165.794 127.171 166.295 127.421 166.758 127.655L166.764 127.658C167.179 127.867 167.558 128.059 168.352 128.059C169.145 128.059 169.525 127.867 169.94 127.658L169.947 127.655C170.409 127.422 170.91 127.171 171.874 127.171C172.837 127.171 173.339 127.421 173.802 127.655L173.808 127.658C174.224 127.867 174.604 128.059 175.398 128.059C176.192 128.059 176.572 127.867 176.989 127.658L176.996 127.654C177.46 127.421 177.962 127.171 178.927 127.171C179.891 127.171 180.393 127.421 180.856 127.655L180.862 127.658C181.278 127.867 181.658 128.059 182.453 128.059V128.925C181.489 128.925 180.987 128.674 180.524 128.441L180.518 128.438C180.102 128.228 179.722 128.037 178.927 128.037C178.132 128.037 177.75 128.229 177.333 128.438L177.327 128.441C176.863 128.674 176.361 128.925 175.398 128.925C174.435 128.925 173.933 128.674 173.47 128.441L173.464 128.438C173.048 128.228 172.667 128.037 171.874 128.037C171.08 128.037 170.701 128.228 170.285 128.438L170.279 128.441C169.816 128.674 169.315 128.925 168.352 128.925C167.388 128.925 166.888 128.674 166.425 128.441L166.419 128.438C166.004 128.229 165.624 128.037 164.83 128.037C164.035 128.037 163.654 128.229 163.239 128.438L163.233 128.441C162.77 128.674 162.269 128.925 161.305 128.925C160.342 128.925 159.841 128.674 159.378 128.441L159.372 128.438C158.956 128.228 158.577 128.037 157.783 128.037C156.991 128.037 156.614 128.228 156.201 128.437L156.193 128.441C155.731 128.674 155.23 128.925 154.261 128.925C153.293 128.925 152.791 128.674 152.329 128.441L152.32 128.436C151.907 128.227 151.53 128.037 150.739 128.037C149.948 128.037 149.572 128.227 149.159 128.436L149.15 128.441C148.689 128.674 148.188 128.925 147.219 128.925C146.25 128.925 145.751 128.674 145.29 128.441L145.282 128.437C144.87 128.228 144.493 128.037 143.697 128.037C142.901 128.037 142.526 128.228 142.115 128.437L142.107 128.44C141.647 128.674 141.148 128.925 140.179 128.925C139.211 128.925 138.707 128.675 138.244 128.441L138.234 128.436Z" fill="#98A2B3"/>
<path fill-rule="evenodd" clip-rule="evenodd" d="M138.234 130.432C137.819 130.223 137.443 130.033 136.657 130.033V129.167C137.616 129.167 138.114 129.418 138.576 129.651L138.579 129.652C138.995 129.862 139.378 130.055 140.179 130.055C140.978 130.055 141.355 129.863 141.766 129.654L141.773 129.651C142.233 129.418 142.73 129.167 143.697 129.167C144.664 129.167 145.162 129.418 145.623 129.651L145.629 129.654C146.042 129.863 146.42 130.055 147.219 130.055C148.019 130.055 148.399 129.863 148.813 129.653L148.818 129.651C149.278 129.418 149.776 129.167 150.739 129.167C151.702 129.167 152.2 129.418 152.661 129.651L152.666 129.653C153.08 129.863 153.461 130.055 154.261 130.055C155.061 130.055 155.441 129.863 155.855 129.653L155.86 129.651C156.321 129.418 156.82 129.167 157.783 129.167C158.747 129.167 159.248 129.418 159.71 129.651L159.717 129.654C160.132 129.863 160.512 130.055 161.305 130.055C162.099 130.055 162.478 129.863 162.894 129.654L162.901 129.651C163.364 129.417 163.865 129.167 164.83 129.167C165.794 129.167 166.295 129.418 166.758 129.651L166.764 129.654C167.179 129.864 167.558 130.055 168.352 130.055C169.145 130.055 169.525 129.863 169.94 129.654L169.947 129.651C170.409 129.418 170.91 129.167 171.874 129.167C172.837 129.167 173.339 129.418 173.802 129.651L173.808 129.654C174.224 129.863 174.604 130.055 175.398 130.055C176.192 130.055 176.572 129.863 176.989 129.654L176.996 129.651C177.46 129.417 177.962 129.167 178.927 129.167C179.891 129.167 180.393 129.418 180.856 129.651L180.862 129.654C181.278 129.863 181.658 130.055 182.453 130.055V130.921C181.489 130.921 180.987 130.67 180.524 130.437L180.518 130.434C180.102 130.224 179.722 130.033 178.927 130.033C178.132 130.033 177.75 130.225 177.333 130.434L177.327 130.437C176.863 130.67 176.361 130.921 175.398 130.921C174.435 130.921 173.933 130.67 173.47 130.437L173.464 130.434C173.048 130.224 172.667 130.033 171.874 130.033C171.08 130.033 170.701 130.224 170.285 130.434L170.279 130.437C169.816 130.67 169.315 130.921 168.352 130.921C167.388 130.921 166.888 130.67 166.425 130.437L166.419 130.434C166.004 130.225 165.624 130.033 164.83 130.033C164.035 130.033 163.654 130.225 163.239 130.434L163.233 130.437C162.77 130.67 162.269 130.921 161.305 130.921C160.342 130.921 159.841 130.67 159.378 130.437L159.372 130.434C158.956 130.224 158.577 130.033 157.783 130.033C156.991 130.033 156.614 130.224 156.201 130.433L156.193 130.437C155.731 130.67 155.23 130.921 154.261 130.921C153.293 130.921 152.791 130.67 152.329 130.437L152.32 130.432C151.907 130.223 151.53 130.033 150.739 130.033C149.948 130.033 149.572 130.223 149.159 130.432L149.15 130.437C148.689 130.67 148.188 130.921 147.219 130.921C146.25 130.921 145.751 130.67 145.29 130.437L145.282 130.433C144.87 130.224 144.493 130.033 143.697 130.033C142.901 130.033 142.526 130.224 142.115 130.433L142.107 130.437C141.647 130.67 141.148 130.921 140.179 130.921C139.211 130.921 138.707 130.671 138.244 130.437L138.234 130.432Z" fill="#98A2B3"/>
<path fill-rule="evenodd" clip-rule="evenodd" d="M138.234 132.428C137.819 132.219 137.443 132.029 136.657 132.029V131.163C137.616 131.163 138.114 131.414 138.576 131.647L138.579 131.648C138.995 131.858 139.378 132.051 140.179 132.051C140.978 132.051 141.355 131.859 141.766 131.651L141.773 131.647C142.233 131.414 142.73 131.163 143.697 131.163C144.664 131.163 145.162 131.414 145.623 131.647L145.629 131.65C146.042 131.859 146.42 132.051 147.219 132.051C148.019 132.051 148.399 131.859 148.813 131.649L148.818 131.647C149.278 131.414 149.776 131.163 150.739 131.163C151.702 131.163 152.2 131.414 152.661 131.647L152.666 131.649C153.08 131.859 153.461 132.051 154.261 132.051C155.061 132.051 155.441 131.859 155.855 131.65L155.86 131.647C156.321 131.414 156.82 131.163 157.783 131.163C158.747 131.163 159.248 131.414 159.71 131.647L159.717 131.65C160.132 131.859 160.512 132.051 161.305 132.051C162.099 132.051 162.478 131.86 162.894 131.65L162.901 131.647C163.364 131.414 163.865 131.163 164.83 131.163C165.794 131.163 166.295 131.414 166.758 131.647L166.764 131.65C167.179 131.86 167.558 132.051 168.352 132.051C169.145 132.051 169.525 131.859 169.94 131.65L169.947 131.647C170.409 131.414 170.91 131.163 171.874 131.163C172.837 131.163 173.339 131.414 173.802 131.647L173.808 131.65C174.224 131.859 174.604 132.051 175.398 132.051C176.192 132.051 176.572 131.859 176.989 131.65L176.996 131.647C177.46 131.413 177.962 131.163 178.927 131.163C179.891 131.163 180.393 131.414 180.856 131.647L180.862 131.65C181.278 131.859 181.658 132.051 182.453 132.051V132.917C181.489 132.917 180.987 132.666 180.524 132.433L180.518 132.43C180.102 132.221 179.722 132.029 178.927 132.029C178.132 132.029 177.75 132.221 177.333 132.43L177.327 132.433C176.863 132.666 176.361 132.917 175.398 132.917C174.435 132.917 173.933 132.666 173.47 132.433L173.464 132.43C173.048 132.221 172.667 132.029 171.874 132.029C171.08 132.029 170.701 132.22 170.285 132.43L170.279 132.433C169.816 132.666 169.315 132.917 168.352 132.917C167.388 132.917 166.888 132.666 166.425 132.433L166.419 132.43C166.004 132.221 165.625 132.029 164.83 132.029C164.035 132.029 163.654 132.221 163.239 132.43L163.233 132.433C162.77 132.666 162.269 132.917 161.305 132.917C160.342 132.917 159.841 132.666 159.378 132.433L159.372 132.43C158.956 132.22 158.577 132.029 157.783 132.029C156.991 132.029 156.614 132.22 156.201 132.429L156.193 132.433C155.731 132.666 155.23 132.917 154.261 132.917C153.293 132.917 152.791 132.667 152.329 132.433L152.32 132.429C151.907 132.22 151.53 132.029 150.739 132.029C149.948 132.029 149.572 132.219 149.159 132.428L149.15 132.433C148.689 132.666 148.188 132.917 147.219 132.917C146.25 132.917 145.751 132.666 145.29 132.433L145.282 132.429C144.87 132.22 144.493 132.029 143.697 132.029C142.901 132.029 142.526 132.22 142.115 132.429L142.107 132.433C141.647 132.666 141.148 132.917 140.179 132.917C139.211 132.917 138.707 132.667 138.244 132.433L138.234 132.428Z" fill="#98A2B3"/>
<path d="M175.467 135.587H144.807V140.269H175.467V135.587Z" fill="#D0D5DD"/>
<rect x="251.535" y="81.3587" width="7.76204" height="5.46188" fill="#D0D5DD"/>
<rect x="227.085" y="88.7713" width="32.2125" height="5.46188" fill="#D0D5DD"/>
<rect x="222.428" y="99.3049" width="36.8697" height="5.46188" fill="#D0D5DD"/>
<rect x="209.62" y="106.327" width="49.677" height="5.46188" fill="#D0D5DD"/>
<rect x="192.156" y="125.054" width="69.0822" height="5.46188" fill="#D0D5DD"/>
<path d="M168.87 62.6323H133.94V108.668H168.87V62.6323Z" fill="#98A2B3"/>
<path d="M167.468 99.372C167.468 98.2341 166.554 97.2384 165.235 96.9337L159.147 95.43C157.148 95.1151 156.58 94.2312 156.509 92.0875L156.489 84.2949L151.385 84.1832L146.281 84.2949L146.261 92.0875C146.2 94.2312 145.622 95.1252 143.623 95.43L137.535 96.9337C136.216 97.2384 135.303 98.2341 135.303 99.372L133.953 107.622C133.882 108.059 134.115 108.485 134.521 108.668H168.269C168.675 108.485 168.908 108.059 168.837 107.622L167.468 99.372Z" fill="#D3D3D3"/>
<path d="M160.994 77.2948C160.913 77.244 160.771 77.2542 160.619 77.2948C160.608 71.8289 158.65 67.6532 151.466 67.6532C144.435 67.6532 142.314 71.8492 142.304 77.3253C142.101 77.244 141.898 77.2034 141.786 77.2745C141.147 77.6809 141.573 79.7738 141.594 80.2513C141.614 80.7085 141.614 81.6635 141.857 82.0496C142.04 82.3442 142.669 82.9335 143.034 82.9132C144.465 87.8813 147.874 91.681 151.466 91.681C154.916 91.681 158.437 87.861 159.898 82.9233C160.263 82.8217 160.761 82.3341 160.933 82.0801C161.187 81.6838 161.166 81.0235 161.197 80.2818C161.217 79.53 161.623 77.7012 160.994 77.2948Z" fill="#DBDBDB"/>
<path d="M151.456 70.1627C151.547 70.1627 151.781 69.5328 152.542 69.5836C157.564 69.929 159.675 73.0074 160.314 77.2542C160.334 77.4168 160.547 77.3964 160.547 77.2339C160.72 70.7621 159.431 65.7534 151.385 65.7534C143.734 65.7534 142.081 70.6809 142.212 77.0713C142.212 77.2644 142.456 77.2847 142.486 77.0917C143.187 72.9465 145.368 69.9493 150.198 69.5836C151.081 69.5226 151.375 70.1627 151.456 70.1627Z" fill="#767676"/>
<path d="M167.488 99.372C167.488 98.2341 166.574 97.2385 165.255 96.9337L159.391 95.4808C159.107 95.4097 158.812 95.4097 158.528 95.4808C156.61 95.9685 153.15 98.9961 151.892 100.144C151.762 100.266 151.591 100.334 151.412 100.336C151.234 100.338 151.061 100.273 150.928 100.154C149.65 99.0164 146.17 96.0294 144.313 95.5011C144.018 95.4199 143.704 95.4199 143.41 95.491L137.565 96.9337C136.246 97.2385 135.333 98.2341 135.333 99.372L133.983 107.622C133.912 108.059 134.146 108.485 134.552 108.668H168.289C168.695 108.485 168.929 108.059 168.857 107.622L167.488 99.372Z" fill="#C2C2C2"/>
<path d="M247.036 64.3558C246.646 64.2816 246.266 64.1682 245.88 64.0788C245.144 63.8924 244.42 63.666 243.708 63.4006C243.591 63.3542 243.464 63.3405 243.34 63.3608C243.216 63.3811 243.099 63.4348 243.002 63.5162C242.77 63.7199 242.58 63.97 242.447 64.2511C242.404 64.3362 242.376 64.4343 242.462 64.5041C242.482 64.5213 242.505 64.5338 242.53 64.541C242.555 64.5482 242.582 64.5497 242.608 64.5456C242.634 64.5415 242.658 64.5317 242.68 64.517C242.702 64.5023 242.72 64.483 242.734 64.4605C242.949 64.1508 243.215 64.214 243.496 64.2838C243.612 64.3122 243.779 64.31 243.781 64.4692C243.783 64.6284 243.612 64.587 243.515 64.635C242.393 65.1911 241.61 66.0176 241.453 67.3327C241.443 67.4523 241.405 67.5678 241.342 67.67C241.28 67.7722 241.195 67.8583 241.095 67.9215C240.812 68.1184 240.468 68.2058 240.127 68.1679C239.957 68.1679 239.793 68.099 239.672 67.9763C239.551 67.8536 239.484 67.6872 239.484 67.5137C239.451 67.1407 239.711 66.8725 239.814 66.5475C239.872 66.3687 240.097 66.3883 240.26 66.3491C240.359 66.3227 240.444 66.2577 240.496 66.1681C240.859 65.6578 241.048 65.1235 240.807 64.4888C240.717 64.2539 240.607 64.0277 240.477 63.8128C240.404 63.6928 240.383 63.5947 240.537 63.5445C240.625 63.5118 240.728 63.4747 240.709 63.3635C240.689 63.2523 240.569 63.2239 240.471 63.1978C240.009 63.1158 239.571 62.9351 239.183 62.6678C239.162 62.6439 239.136 62.6258 239.106 62.615C239.076 62.6043 239.044 62.6013 239.013 62.6062C238.982 62.6112 238.953 62.6241 238.928 62.6436C238.903 62.6631 238.883 62.6887 238.87 62.718C238.788 62.8423 238.655 62.9361 238.642 63.0996C238.582 63.3684 238.43 63.6069 238.213 63.7735C237.804 64.1554 237.517 64.6528 237.387 65.202C237.355 65.3372 237.439 65.5334 237.237 65.5771C237.035 65.6207 236.984 65.4506 236.896 65.335C236.684 65.0074 236.413 64.7233 236.098 64.4976C236.02 64.4438 235.932 64.4067 235.84 64.3885C235.747 64.3703 235.652 64.3715 235.56 64.3919C235.468 64.4123 235.382 64.4515 235.305 64.5072C235.228 64.5629 235.164 64.6338 235.115 64.7156C234.875 65.1147 234.607 65.5051 234.551 65.9892C234.499 66.4363 234.598 66.7853 235.195 66.8616C235.543 66.8845 235.892 66.8633 236.235 66.7983C236.372 66.7853 236.566 66.722 236.639 66.8834C236.711 67.0448 236.553 67.1538 236.454 67.2585C236.147 67.5663 235.804 67.835 235.433 68.0589C234.782 68.505 234.012 68.7351 233.227 68.7175C233.08 68.7156 232.934 68.6842 232.799 68.6251C232.663 68.5659 232.54 68.4803 232.437 68.3729C232.3 68.2312 232.264 68.1134 232.455 67.9847C232.896 67.6604 233.288 67.2725 233.62 66.8332C234.008 66.36 234.216 65.8519 233.875 65.2521C233.817 65.1518 233.763 65.034 233.946 64.9861C234.032 64.9664 234.143 64.9664 234.141 64.8399C234.139 64.7134 234.032 64.6895 233.952 64.6633C233.558 64.5103 233.216 64.2435 232.97 63.8956C232.755 63.6165 232.631 63.7321 232.491 63.9458C232.277 64.2838 232.354 64.7789 232.706 65.2216C232.907 65.4833 233.173 65.6927 233.319 66.0001C233.373 66.1136 233.442 66.2291 233.294 66.3338C233.137 66.4647 232.969 66.5807 232.791 66.6806C232.648 66.7482 232.495 66.9837 232.362 66.8572C232.229 66.7307 232.362 66.5148 232.427 66.3425C232.459 66.2488 232.538 66.1245 232.414 66.0721C232.289 66.0198 232.199 66.1354 232.156 66.2335C232.048 66.4477 231.961 66.6719 231.895 66.903C231.871 67.0432 231.815 67.1758 231.731 67.2895C231.647 67.4033 231.538 67.4951 231.412 67.5573C230.653 67.9423 229.873 68.2823 229.075 68.5757C228.419 68.8352 227.726 68.8374 227.041 68.9159C226.947 68.9159 226.81 68.9029 226.807 69.049C226.805 69.1951 226.93 69.1886 227.033 69.1995C227.893 69.3331 228.766 69.3602 229.633 69.2801C230.247 69.1995 230.867 69.1188 231.41 68.7764C231.592 68.663 231.676 68.7895 231.774 68.9029C231.931 69.0795 232.03 69.2954 232.262 69.4175C233.09 69.8537 233.884 69.701 234.665 69.3041C235.096 69.1064 235.502 68.8551 235.873 68.5561C236.332 68.1592 236.776 67.7339 236.962 67.132C237.038 66.8535 237.216 66.6153 237.46 66.467C237.704 66.3187 237.994 66.2718 238.271 66.336C238.531 66.4097 238.795 66.4622 239.063 66.493C239.346 66.5192 239.415 66.6108 239.243 66.8529C239.043 67.1591 238.92 67.5114 238.887 67.8779C238.863 68.0342 238.876 68.194 238.924 68.3445C238.972 68.495 239.054 68.632 239.164 68.7443C239.273 68.8567 239.407 68.9415 239.555 68.9917C239.702 69.042 239.859 69.0564 240.014 69.0337C240.245 69.0203 240.471 68.9576 240.677 68.8498C240.884 68.742 241.065 68.5914 241.211 68.4078C241.556 67.9128 241.882 67.9935 242.318 68.2442C242.547 68.3773 242.854 68.506 243.12 68.2879C243.513 67.9651 243.833 67.59 243.897 67.0426C243.916 66.9377 243.912 66.8298 243.884 66.7268C243.857 66.6238 243.807 66.5284 243.738 66.4477C243.67 66.3669 243.584 66.3028 243.488 66.26C243.392 66.2173 243.287 66.1971 243.183 66.2008C242.908 66.2008 242.721 66.3665 242.502 66.4778C242.382 66.5388 242.288 66.7678 242.14 66.6282C241.992 66.4887 242.14 66.3186 242.217 66.1921C242.288 66.0476 242.394 65.9233 242.524 65.8301C242.848 65.5996 243.212 65.4339 243.597 65.3415C244.34 65.1992 245.095 65.1219 245.852 65.1104C246.01 65.1104 246.169 65.1104 246.328 65.1104C246.487 65.1162 246.645 65.0832 246.789 65.0142C246.932 64.9451 247.058 64.842 247.154 64.7135C247.304 64.5368 247.339 64.4147 247.036 64.3558ZM235.559 65.9304C235.358 65.9129 235.175 65.8737 235.087 65.6905C235.025 65.5618 235.122 65.4549 235.212 65.3612C235.364 65.2041 235.525 65.2717 235.675 65.3612C235.825 65.4506 236.104 65.5923 236.07 65.7755C236.016 66.0045 235.718 65.8453 235.559 65.9325V65.9304ZM238.398 65.1867C238.347 65.1912 238.296 65.1839 238.248 65.1654C238.2 65.147 238.157 65.1177 238.122 65.08C238.087 65.0423 238.061 64.9969 238.045 64.9474C238.03 64.8979 238.026 64.8455 238.033 64.7941C238.05 64.6529 238.119 64.5234 238.226 64.4317C238.333 64.3399 238.47 64.2925 238.61 64.2991C238.716 64.3274 238.813 64.3822 238.892 64.4584C238.972 64.5346 239.031 64.6298 239.065 64.7353C239.063 64.877 238.591 65.1867 238.398 65.1889V65.1867ZM239.256 65.2238C239.376 65.0439 239.481 64.8534 239.567 64.6546C239.668 64.4365 239.782 64.4583 239.921 64.611C240.064 64.8051 240.163 65.0283 240.213 65.2652C240.26 65.4026 240.157 65.4833 240.035 65.5029C239.922 65.5203 239.808 65.5305 239.694 65.5335C239.552 65.5335 239.479 65.5335 239.396 65.5335C239.17 65.5116 239.102 65.4462 239.248 65.2281L239.256 65.2238ZM242.743 67.0993C242.889 67.0993 243.116 67.2738 243.107 67.3697C243.099 67.4657 242.992 67.4613 242.919 67.4526C242.766 67.4352 242.618 67.3828 242.58 67.2171C242.547 67.1146 242.648 67.0971 242.734 67.1015L242.743 67.0993Z" fill="#667085"/>
<path d="M226.812 65.9805C227.213 65.8322 227.445 66.1811 227.687 66.4363C227.753 66.5143 227.825 66.5872 227.902 66.6544C228.084 66.8303 228.316 66.9453 228.565 66.9837C229.356 67.0382 230.453 66.1397 230.594 65.3284C230.669 64.8923 230.669 64.8923 231.075 65.0449C231.167 65.0798 231.262 65.0995 231.313 64.9948C231.365 64.8901 231.26 64.8661 231.204 64.8159C230.941 64.598 230.688 64.3666 230.448 64.1224C230.103 63.743 229.629 63.3744 230.135 62.7769C230.193 62.7071 230.176 62.574 230.217 62.4824C230.277 62.3494 230.352 62.2142 230.189 62.1226C230.026 62.031 229.974 62.1902 229.88 62.2731C229.802 62.3581 229.752 62.4655 229.736 62.5806C229.717 62.6809 229.659 62.7681 229.552 62.7354C229.275 62.6525 229.226 62.8336 229.172 63.0364C229.144 63.1367 229.082 63.2326 228.957 63.2239C228.931 63.2223 228.905 63.2153 228.882 63.2034C228.858 63.1914 228.837 63.1748 228.82 63.1545C228.803 63.1342 228.79 63.1105 228.781 63.085C228.773 63.0595 228.77 63.0325 228.773 63.0058C228.773 62.8946 228.756 62.7878 228.623 62.7878C228.49 62.7878 228.47 62.9295 228.449 63.0364C228.405 63.1813 228.419 63.3379 228.487 63.4725C228.685 63.8215 228.955 63.8346 229.331 63.5052C229.412 63.4355 229.485 63.3046 229.614 63.3984C229.743 63.4922 229.672 63.5947 229.629 63.6863C229.429 64.1224 229.569 64.4779 229.798 64.8487C230.097 65.3263 230.069 65.4026 229.61 65.6905C229.542 65.7372 229.47 65.7773 229.395 65.8104C228.852 66.0285 228.524 66.0525 228.131 65.6207C227.994 65.468 227.861 65.3088 227.702 65.1671C227.537 65.0272 227.327 64.9552 227.112 64.9653C226.898 64.9754 226.695 65.0668 226.544 65.2216C226.176 65.6286 225.934 66.1368 225.848 66.6827C225.764 67.2068 225.62 67.7191 225.419 68.2093C225.358 68.3599 225.249 68.4849 225.109 68.5642C224.969 68.6434 224.807 68.6721 224.649 68.6455C224.278 68.615 224.119 68.3293 224.065 68.0174C223.997 67.5971 223.962 67.172 223.96 66.746C223.96 66.4559 224.018 66.2357 224.426 66.1855C225.299 66.0787 225.67 65.4942 225.565 64.5979C225.509 64.1093 225.228 63.78 224.896 63.4747C224.563 63.1694 224.447 63.1781 224.132 63.514C223.748 63.9695 223.475 64.5104 223.334 65.0929C223.171 65.5462 222.903 65.9531 222.553 66.2793C222.521 66.3212 222.478 66.3527 222.429 66.3698C222.379 66.3869 222.326 66.3888 222.276 66.3752C222.139 66.3142 222.229 66.1899 222.254 66.1026C222.36 65.7639 222.336 65.3973 222.188 65.0755C221.931 64.491 221.1 64.1377 220.645 64.4605C219.969 64.9402 219.298 65.4266 218.656 65.9522C218.015 66.4777 218.041 66.4952 217.397 65.9674L217.371 65.9456C216.727 65.4135 216.069 65.4353 215.44 65.9783C215.008 66.383 214.637 66.8504 214.339 67.3653C214.118 67.7567 213.8 68.0823 213.417 68.3097C213.348 68.3446 213.262 68.3969 213.202 68.3097C213.142 68.2224 213.215 68.1788 213.243 68.1199C213.403 67.8554 213.527 67.57 213.612 67.2716C213.801 66.2997 213.788 65.2985 213.576 64.3318C213.539 64.1682 213.436 63.9676 213.724 63.8956C213.852 63.8629 213.809 63.7321 213.784 63.6296C213.679 63.1078 213.527 62.5968 213.331 62.103C213.212 61.9064 213.151 61.6794 213.155 61.4487C213.172 61.3288 213.209 61.1652 213.039 61.1369C212.87 61.1085 212.825 61.2481 212.762 61.3549C212.565 61.6953 212.476 62.0887 212.505 62.4824C212.659 63.4224 212.865 64.3514 213.018 65.2892C213.161 66.1746 213.29 67.0688 212.868 67.9258C212.84 68.0051 212.829 68.0894 212.836 68.1732C212.843 68.257 212.867 68.3384 212.906 68.4122C212.209 68.4601 211.808 68.0065 211.941 67.3588C212.012 66.9516 212.134 66.5553 212.303 66.179C212.428 65.8699 212.506 65.5435 212.535 65.2107C212.552 65.1104 212.548 64.9926 212.423 64.949C212.299 64.9054 212.254 65.01 212.181 65.0885C211.949 65.3328 211.889 65.6577 211.786 65.9609C211.529 66.7002 211.28 67.4569 211.368 68.2508C211.384 68.4433 211.442 68.6298 211.537 68.7969C211.633 68.964 211.763 69.1076 211.92 69.2173C212.076 69.3269 212.255 69.4 212.442 69.4312C212.63 69.4625 212.822 69.4511 213.005 69.3979C213.664 69.2103 214.116 68.7197 214.492 68.1548C214.744 67.7217 215.031 67.3104 215.35 66.9248C215.878 66.3643 216.356 66.336 217.079 67.0164C217.317 67.2345 217.41 67.433 217.131 67.6968C217.003 67.8429 216.889 68.0014 216.792 68.1701C216.751 68.2311 216.65 68.2922 216.725 68.3729C216.8 68.4536 216.873 68.3729 216.94 68.3293C216.994 68.287 217.043 68.2387 217.086 68.1853C217.47 67.7732 217.847 67.3392 218.483 67.7492C218.508 67.7644 218.549 67.7492 218.583 67.7601C219.313 67.9117 220.064 67.9117 220.793 67.7601C221.182 67.7012 221.589 67.7143 221.95 67.5267C222.497 67.2668 222.958 66.8518 223.278 66.3316C223.329 66.24 223.381 66.1354 223.508 66.1833C223.634 66.2313 223.613 66.3251 223.608 66.4189C223.608 66.5567 223.6 66.6943 223.583 66.831C223.499 67.5067 223.568 68.193 223.784 68.8374C223.841 69.056 223.961 69.2523 224.128 69.4009C224.296 69.5494 224.503 69.6434 224.724 69.6705C225.078 69.6705 225.477 69.3652 225.655 68.9225C225.719 68.762 225.772 68.5974 225.814 68.4296C225.947 67.8953 226.063 67.3544 226.207 66.8223C226.327 66.4799 226.462 66.1005 226.812 65.9805ZM221.448 66.1702C220.804 66.4538 220.178 66.7678 219.435 66.7394C219.347 66.6936 219.173 66.8092 219.126 66.65C219.079 66.4908 219.236 66.4319 219.326 66.3578C219.723 66.0198 220.128 65.6905 220.532 65.3612C220.622 65.2888 220.733 65.2495 220.848 65.2495C220.963 65.2495 221.074 65.2888 221.165 65.3612C221.275 65.4227 221.37 65.5081 221.445 65.6114C221.519 65.7147 221.57 65.8332 221.594 65.9587C221.595 66.0052 221.581 66.0507 221.555 66.0888C221.529 66.1269 221.491 66.1554 221.448 66.1702ZM223.838 64.9882C223.763 64.7418 223.962 64.539 224.08 64.334C224.108 64.2899 224.15 64.2563 224.198 64.2386C224.247 64.2208 224.299 64.2199 224.349 64.2358C224.525 64.2729 224.96 64.805 224.96 64.9817C224.96 65.1125 224.726 65.2347 224.494 65.2259L224.394 65.2107C224.188 65.1801 223.913 65.2499 223.838 64.9882Z" fill="#667085"/>
<path d="M211.477 63.5816C211.451 63.3635 211.436 63.1454 211.417 62.9426C211.588 63.1671 211.689 63.4382 211.707 63.7212C211.72 63.8128 211.732 63.9262 211.85 63.9218C211.969 63.9175 211.992 63.7888 211.999 63.6885C212.006 63.5964 212 63.5037 211.979 63.4137C211.873 62.9182 211.689 62.4433 211.434 62.007C211.294 61.807 211.184 61.5864 211.108 61.3528C211.078 61.2481 211.091 61.0998 210.941 61.0867C210.791 61.0736 210.786 61.2088 210.726 61.2873C210.336 61.8064 210.563 62.3778 210.63 62.9186C210.739 63.8149 210.939 64.7004 210.844 65.6142C210.845 65.6773 210.833 65.7398 210.809 65.7982C210.785 65.8566 210.751 65.9097 210.707 65.9544C210.48 66.1165 210.217 66.2208 209.942 66.2588C209.667 66.2967 209.387 66.2671 209.126 66.1724C209.066 66.1419 208.995 66.1136 208.997 66.0307C208.999 65.9478 209.07 65.9129 209.136 65.8998C209.617 65.7952 209.857 65.4157 210.091 65.0275C210.188 64.8661 210.355 64.7047 210.237 64.4954C210.119 64.286 209.922 64.2991 209.724 64.2926C208.819 64.262 207.915 64.225 207.008 64.2642C206.276 64.2947 206.051 64.5237 205.708 65.1758C205.645 65.2979 205.568 65.4659 205.686 65.5989C205.804 65.7319 205.965 65.6774 206.1 65.6272C206.232 65.5893 206.369 65.5785 206.505 65.5953C206.64 65.6122 206.771 65.6564 206.89 65.7254C205.946 66.0329 205.309 66.7111 204.744 67.4701C204.504 67.7994 204.33 68.1788 203.993 68.4383C203.656 68.6979 203.253 68.7698 202.921 68.5539C202.346 68.1723 202.391 66.6413 202.994 66.3011C203.987 65.7428 204.281 64.6175 203.732 63.61C203.646 63.4508 203.562 63.442 203.455 63.5881C203.348 63.7229 203.283 63.8869 203.268 64.0593C203.253 64.2318 203.289 64.4048 203.371 64.5564C203.564 64.9926 203.446 65.2107 203.002 65.3743C202.886 65.4206 202.767 65.4585 202.646 65.4877C202.23 65.5727 201.826 65.5531 201.509 65.2216C201.413 65.0937 201.326 64.9589 201.249 64.8181C201.118 64.6284 201 64.6458 200.908 64.8574C200.799 65.1124 200.727 65.3819 200.693 65.6578C200.668 65.8819 200.58 66.0939 200.44 66.2687C200.299 66.4434 200.113 66.5735 199.902 66.6435C199.043 66.9815 198.518 66.7874 198.057 65.9893C197.733 65.4222 197.299 65.3481 196.795 65.7515C196.424 66.0481 196.306 66.4887 196.136 66.8987C195.95 67.3523 195.806 67.8233 195.632 68.2835C195.601 68.4019 195.529 68.5052 195.429 68.5747C195.33 68.6442 195.209 68.6755 195.089 68.663C194.963 68.6496 194.845 68.5916 194.757 68.4992C194.668 68.4068 194.614 68.2857 194.604 68.157C194.461 67.3989 194.497 66.617 194.709 65.8758C194.791 65.5771 194.857 65.2216 195.123 65.0231C195.345 64.8429 195.53 64.6207 195.668 64.3689C195.778 64.1792 195.943 63.9894 195.87 63.6928L195.467 64.1115C195.4 64.1999 195.305 64.2616 195.199 64.2859C195.092 64.3102 194.98 64.2956 194.883 64.2446C194.782 64.1913 194.701 64.1056 194.652 64.0009C194.603 63.8961 194.589 63.7779 194.613 63.6645C194.677 63.3378 194.796 63.0245 194.963 62.7376C195.04 62.5631 195.211 62.4236 195.199 62.1968C195.139 62.2032 195.081 62.2239 195.03 62.2573C194.979 62.2906 194.937 62.3356 194.907 62.3887C194.571 62.8097 194.324 63.2957 194.179 63.8171C194.023 64.3122 194.066 64.7723 194.497 65.1256C194.55 65.1588 194.59 65.2104 194.608 65.271C194.627 65.3316 194.623 65.397 194.598 65.4549C194.279 66.355 194.166 67.3171 194.267 68.2682C194.295 68.6237 194.321 68.9792 194.561 69.2758C194.954 69.7599 195.302 69.7469 195.619 69.2147C195.982 68.6085 196.074 67.8931 196.351 67.252C196.516 66.8747 196.737 66.4821 197.132 66.4058C197.484 66.3404 197.666 66.7307 197.848 67.0077L197.885 67.0666C198.449 67.8015 199.013 67.9847 199.936 67.518C200.381 67.281 200.725 66.887 200.904 66.4102C200.994 66.1921 201.129 66.1332 201.333 66.2706C201.595 66.4341 201.898 66.5174 202.206 66.5105C202.451 66.5214 202.483 66.6086 202.386 66.8005C202.177 67.3021 202.084 67.8463 202.116 68.3904C202.116 69.0708 202.691 69.7774 203.446 69.64C203.955 69.5484 204.171 69.2038 204.422 68.8353C205.094 67.8757 205.869 67.0557 206.984 66.6108C207.431 66.4342 207.733 66.3927 208.152 66.7569C208.917 67.4286 209.81 67.2672 210.679 66.8921C210.886 66.8118 211.067 66.6754 211.203 66.4978C211.34 66.3202 211.425 66.1081 211.451 65.8846C211.57 65.1223 211.579 64.3464 211.477 63.5816ZM208.43 65.2565C208.3 65.3285 208.169 65.407 208.018 65.311C207.965 65.2724 207.915 65.2293 207.868 65.1823L208.083 65.1147C208.214 65.0755 208.349 65.0275 208.467 65.1409C208.475 65.1502 208.48 65.1613 208.482 65.1732C208.484 65.1851 208.483 65.1973 208.48 65.2089C208.476 65.2204 208.47 65.2308 208.461 65.2391C208.453 65.2474 208.442 65.2534 208.43 65.2565Z" fill="#667085"/>
<path d="M246.302 67.9215C245.978 68.1308 245.624 68.2875 245.253 68.386C245.138 68.414 245.018 68.4105 244.905 68.3756C244.792 68.3407 244.69 68.2758 244.609 68.1875C244.444 68.0283 244.588 67.8321 244.659 67.6794C244.743 67.5442 244.843 67.4197 244.957 67.3087C245.171 67.0317 245.453 66.7853 245.416 66.3818C245.416 66.3295 245.405 66.2778 245.384 66.2299C245.363 66.182 245.333 66.1388 245.296 66.103C245.258 66.0671 245.214 66.0394 245.166 66.0213C245.118 66.0033 245.066 65.9953 245.015 65.998C244.755 65.998 244.309 66.2793 244.335 66.4341C244.395 66.7526 244.648 66.6021 244.828 66.6282C244.828 66.6282 244.843 66.6435 244.882 66.6871C244.64 66.9493 244.433 67.2426 244.266 67.5595C244.105 67.8735 244.013 68.1788 244.242 68.5256C244.33 68.6537 244.453 68.753 244.596 68.8111C244.738 68.8692 244.894 68.8837 245.045 68.8527C245.588 68.7798 246.093 68.5278 246.482 68.1352C246.543 68.0829 246.594 68.0022 246.543 67.9171C246.465 67.8015 246.373 67.8779 246.302 67.9215Z" fill="#667085"/>
<path d="M208.918 68.6673C208.851 68.7088 208.8 68.7742 208.731 68.8156C208.383 69.0707 207.972 69.2218 207.544 69.2518C207.448 69.2608 207.35 69.2419 207.264 69.1971C207.177 69.1523 207.105 69.0836 207.055 68.9988C206.956 68.8178 207.092 68.6739 207.186 68.5321C207.407 68.254 207.698 68.041 208.027 67.915C208.126 67.8648 208.242 67.7885 208.186 67.6511C208.13 67.5137 207.999 67.5442 207.888 67.5769C207.776 67.6096 207.607 67.6641 207.459 67.7034C207.394 67.7208 207.313 67.7405 207.28 67.6598C207.248 67.5791 207.313 67.5159 207.388 67.4788C207.459 67.4492 207.528 67.4119 207.592 67.3676C207.63 67.3409 207.658 67.3011 207.669 67.2555C207.681 67.2098 207.676 67.1613 207.656 67.1189C207.637 67.0779 207.607 67.0437 207.568 67.021C207.53 66.9983 207.486 66.9884 207.441 66.9925C207.07 67.0186 206.622 67.7645 206.819 68.0829C206.872 68.1546 206.901 68.2418 206.901 68.3315C206.901 68.4211 206.872 68.5084 206.819 68.5801C206.517 69.1711 206.834 69.6923 207.48 69.6705C208.09 69.5962 208.652 69.2966 209.059 68.8287C209.1 68.7698 209.149 68.7088 209.102 68.6433C209.055 68.5779 208.982 68.6303 208.918 68.6673Z" fill="#667085"/>
<path d="M227.061 68.4602C227.08 68.4768 227.102 68.4892 227.127 68.4966C227.151 68.504 227.177 68.5062 227.202 68.5031C227.227 68.5001 227.251 68.4918 227.273 68.4787C227.295 68.4657 227.314 68.4483 227.329 68.4274C227.709 68.0741 227.713 68.0741 228.166 68.3468C228.286 68.4209 228.395 68.482 228.537 68.3795C229.058 67.9978 229.052 67.7252 228.509 67.4003C228.451 67.3654 228.391 67.3327 228.335 67.2934C228.307 67.2644 228.272 67.2424 228.235 67.229C228.197 67.2157 228.156 67.2114 228.116 67.2164C228.077 67.2215 228.038 67.2358 228.005 67.2582C227.971 67.2806 227.943 67.3106 227.923 67.3458C227.782 67.5442 227.618 67.6423 227.376 67.4962C227.309 67.466 227.235 67.4518 227.161 67.4548C227.01 67.4417 226.858 67.4862 226.737 67.5795C226.615 67.6729 226.532 67.8087 226.503 67.9608C226.443 68.2573 226.696 68.2792 226.87 68.3664C226.936 68.3923 227 68.4236 227.061 68.4602Z" fill="#667085"/>
<path d="M234.886 63.4006C235.33 63.3656 235.766 63.2534 236.173 63.0691C236.726 62.8096 237.091 62.1968 237.78 62.1968C237.815 62.1934 237.847 62.1778 237.872 62.1527C237.897 62.1277 237.912 62.0946 237.915 62.0594C237.917 62.0482 237.917 62.0367 237.915 62.0255C237.913 62.0144 237.908 62.0038 237.902 61.9944C237.895 61.9851 237.887 61.9771 237.878 61.971C237.868 61.9649 237.858 61.9609 237.846 61.959C237.576 61.9285 237.598 61.7628 237.643 61.5599C237.665 61.4749 237.655 61.3847 237.615 61.3065C237.576 61.2284 237.509 61.1679 237.428 61.1369C237.355 61.0911 237.269 61.0726 237.184 61.0845C237.099 61.0964 237.021 61.1381 236.962 61.2023C236.716 61.4378 236.546 61.6952 236.748 62.0485C236.77 62.0751 236.786 62.1068 236.793 62.1408C236.801 62.1748 236.8 62.2101 236.792 62.2439C236.783 62.2776 236.767 62.3088 236.744 62.3347C236.721 62.3607 236.692 62.3807 236.66 62.393C236.095 62.7525 235.478 63.0204 234.832 63.1869C234.742 63.2109 234.577 63.1738 234.589 63.3046C234.602 63.4355 234.772 63.381 234.886 63.4006Z" fill="#667085"/>
<path d="M197.048 63.0233C197.288 63.1236 197.467 63.2261 197.263 63.5511C196.99 63.9872 197.02 64.0112 197.428 64.2969C197.467 64.3231 197.501 64.3536 197.537 64.3798C197.778 64.5455 197.967 64.5673 198.14 64.2598C198.355 63.8673 198.355 63.8237 198.022 63.6056C197.64 63.3504 197.643 63.3526 197.891 62.9295C197.994 62.7551 198.08 62.5544 197.853 62.4214C197.682 62.3323 197.503 62.2593 197.318 62.2033C197.104 62.1771 196.889 62.4061 196.806 62.694C196.739 62.9295 196.898 62.9601 197.048 63.0233Z" fill="#667085"/>
<path d="M200.312 68.0632C200.238 68.0291 200.154 68.0243 200.077 68.0497C200 68.0751 199.935 68.129 199.895 68.2006C199.864 68.2588 199.82 68.3096 199.768 68.3495C199.716 68.3895 199.655 68.4177 199.592 68.4323C199.528 68.4469 199.462 68.4476 199.397 68.4344C199.333 68.4212 199.273 68.3943 199.219 68.3555C199.167 68.3325 199.113 68.3164 199.056 68.3075C198.698 68.2857 198.711 68.5583 198.627 68.724C198.544 68.8898 198.55 69.11 198.773 69.1602C198.996 69.2104 199.224 69.4808 199.417 69.1362C199.565 68.8789 199.749 68.7676 200.028 68.9508C200.093 68.9923 200.181 68.9966 200.243 69.0402C200.268 69.0608 200.296 69.0755 200.327 69.0833C200.358 69.091 200.391 69.0917 200.422 69.0853C200.453 69.0788 200.482 69.0653 200.508 69.0458C200.533 69.0263 200.554 69.0013 200.569 68.9726C200.687 68.8025 200.947 68.6957 200.876 68.4362C200.805 68.1766 200.524 68.1505 200.312 68.0632Z" fill="#667085"/>
<path d="M222.941 67.7536C222.031 68.0938 221.13 68.4645 220.169 68.639C220.032 68.6651 219.869 68.639 219.74 68.8069C219.824 68.8624 219.919 68.8994 220.019 68.9155C220.118 68.9317 220.22 68.9266 220.317 68.9007C220.592 68.8363 220.87 68.7868 221.15 68.7524C221.849 68.7088 222.482 68.4187 223.141 68.2312C223.184 68.224 223.224 68.2068 223.26 68.1811C223.295 68.1554 223.325 68.1218 223.345 68.0829C223.366 68.0439 223.378 68.0007 223.379 67.9565C223.381 67.9122 223.373 67.8682 223.355 67.8277C223.267 67.6118 223.091 67.6968 222.941 67.7536Z" fill="#667085"/>
<path d="M198.587 63.0298C198.941 62.7725 199.387 62.7049 199.745 62.4824C200.236 62.1793 200.784 62.0463 201.294 61.8129C201.723 61.6145 202.17 61.4531 202.609 61.2699C202.68 61.2415 202.76 61.2132 202.773 61.1085C202.723 60.9602 202.627 61.0213 202.53 61.054C201.313 61.4785 200.116 61.9569 198.941 62.489C198.747 62.555 198.573 62.6707 198.436 62.8248C198.402 62.8706 198.37 62.9295 198.406 62.984C198.415 62.9994 198.426 63.0127 198.44 63.0234C198.454 63.034 198.47 63.0417 198.487 63.046C198.504 63.0503 198.521 63.051 198.538 63.0483C198.555 63.0455 198.572 63.0392 198.587 63.0298Z" fill="#667085"/>
<path d="M238.278 68.3206C238.098 68.3816 237.902 68.5103 237.741 68.3402C237.581 68.1701 237.675 67.9891 237.778 67.8321C237.881 67.675 238.027 67.5049 238.143 67.337C238.201 67.2563 238.278 67.1582 238.181 67.06C238.085 66.9619 238.005 67.0295 237.928 67.0709C237.471 67.3152 237.231 67.7012 237.199 68.362C237.191 68.4677 237.214 68.5734 237.264 68.6665C237.313 68.7596 237.388 68.8363 237.48 68.8876C237.733 69.0533 237.958 68.9268 238.179 68.8134C238.281 68.7565 238.372 68.6828 238.45 68.5953C238.555 68.4841 238.744 68.3555 238.628 68.1962C238.484 68.0087 238.398 68.2813 238.278 68.3206Z" fill="#667085"/>
<path d="M205.742 62.9513C206.124 62.73 206.521 62.5383 206.931 62.3778C207.707 62.0419 208.433 61.5927 209.263 61.3724C209.375 61.3419 209.467 61.2917 209.454 61.1718C209.435 61.0039 209.308 61.0693 209.216 61.0911C209.117 61.1112 209.02 61.1404 208.926 61.1783C208.068 61.5403 207.215 61.9038 206.369 62.2687C206.112 62.3592 205.868 62.4831 205.643 62.6373C205.6 62.6655 205.567 62.7075 205.549 62.7567C205.531 62.8059 205.53 62.8597 205.545 62.9099C205.558 62.9448 205.605 62.9666 205.633 62.9906C205.67 62.9809 205.707 62.9677 205.742 62.9513Z" fill="#667085"/>
<path d="M214.807 63.224C214.966 63.0582 215.11 63.1062 215.174 63.2916C215.261 63.4659 215.295 63.6624 215.273 63.8564C215.238 63.9938 215.219 64.1312 215.376 64.1639C215.532 64.1966 215.605 64.033 215.601 63.8978C215.613 63.5661 215.662 63.2369 215.747 62.9165C215.796 62.67 215.902 62.4432 216.191 62.4389C216.309 62.4389 216.432 62.537 216.502 62.3647C216.518 62.3335 216.523 62.2978 216.516 62.2635C216.51 62.2291 216.492 62.1979 216.466 62.175C216.414 62.1307 216.35 62.1022 216.283 62.0926C216.215 62.083 216.146 62.0926 216.084 62.1204C215.896 62.2035 215.738 62.3437 215.631 62.5217C215.492 62.7115 215.372 62.8314 215.157 62.7202C215.046 62.7093 214.934 62.7306 214.835 62.7816C214.735 62.8325 214.652 62.911 214.595 63.008C214.543 63.0887 214.505 63.1803 214.578 63.261C214.65 63.3417 214.741 63.2916 214.807 63.224Z" fill="#667085"/>
<path d="M230.438 61.1849C230.755 61.1042 231.071 61.0147 231.395 60.9668C231.511 60.9471 231.646 60.9035 231.633 60.7705C231.62 60.6375 231.472 60.692 231.384 60.6963C231.259 60.7002 231.135 60.7163 231.013 60.7443C230.038 60.9924 229.083 61.3139 228.155 61.7061C227.94 61.7911 227.702 61.874 227.618 62.2033C227.691 62.1886 227.763 62.1696 227.833 62.1466C228.669 61.743 229.541 61.4209 230.438 61.1849Z" fill="#667085"/>
<path d="M218.927 63.2828C219.131 63.2789 219.333 63.2391 219.523 63.165C220.045 63.0068 220.506 62.6884 220.843 62.2534C220.931 62.1379 221.058 61.9525 220.822 61.9045C220.523 61.8391 220.199 61.7322 219.91 61.9612C219.809 62.0419 219.624 62.103 219.695 62.26C219.766 62.417 219.882 62.2316 219.982 62.2316C220.083 62.2316 220.3 62.164 220.352 62.3058C220.403 62.4475 220.21 62.513 220.105 62.5806C219.726 62.7809 219.329 62.9452 218.92 63.0713C218.852 63.0974 218.736 63.0887 218.744 63.1956C218.753 63.3024 218.852 63.2872 218.927 63.2828Z" fill="#667085"/>
<path d="M226.202 63.9196C226.185 64.1028 226.7 64.5346 226.939 64.5346C227.059 64.5346 227.436 64.0985 227.443 63.9371C227.449 63.7757 226.915 63.3548 226.715 63.3395C226.554 63.3199 226.226 63.7015 226.202 63.9196Z" fill="#667085"/>
<path d="M241.08 62.9797C241.134 62.9932 241.184 63.0203 241.226 63.0583C241.268 63.0964 241.299 63.1443 241.318 63.1978C241.385 63.3701 241.443 63.5445 241.518 63.7103C241.565 63.8171 241.586 63.996 241.749 63.9523C241.913 63.9087 241.91 63.7495 241.904 63.6056C241.904 63.4006 241.904 63.1934 241.876 62.9862C241.848 62.779 241.9 62.646 242.121 62.6155C242.173 62.6143 242.222 62.5924 242.258 62.5544C242.294 62.5164 242.314 62.4655 242.314 62.4127C242.317 62.3837 242.312 62.3544 242.299 62.3286C242.285 62.3029 242.264 62.282 242.239 62.2687C242.129 62.2142 242.043 62.2687 241.964 62.3429C241.749 62.5413 241.535 62.7965 241.219 62.561C241.039 62.5915 240.859 62.6286 240.829 62.8118C240.799 62.9949 240.977 62.9535 241.08 62.9797Z" fill="#667085"/>
<path d="M232.084 62.4432C232.187 62.4432 232.24 62.5174 232.298 62.5893C232.356 62.6613 232.42 62.8074 232.556 62.7812C232.691 62.7551 232.684 62.585 232.717 62.4694C232.798 62.175 232.813 61.8435 233.184 61.7366C233.253 61.7192 233.283 61.645 233.272 61.5556C233.271 61.5054 233.255 61.4567 233.228 61.4148C233.201 61.3729 233.163 61.3394 233.118 61.3179C233.056 61.3071 232.992 61.3155 232.935 61.3419C232.877 61.3684 232.829 61.4116 232.796 61.4662C232.601 61.6843 232.466 61.97 232.079 61.9307C231.942 61.9176 231.813 62.1139 231.811 62.2862C231.809 62.4585 231.955 62.4519 232.084 62.4432Z" fill="#667085"/>
<path d="M223.269 61.8456C223.452 61.9263 223.484 62.0855 223.559 62.2447C223.6 62.3429 223.593 62.4999 223.741 62.5086C223.89 62.5174 223.956 62.3669 223.99 62.2578C224.075 61.9823 224.241 61.7395 224.465 61.5621C224.523 61.5185 224.546 61.4291 224.574 61.3789C224.574 61.2917 224.544 61.2415 224.486 61.2197C224.437 61.2024 224.384 61.2024 224.335 61.2199C224.287 61.2373 224.245 61.2711 224.218 61.3157C224.029 61.5338 223.855 61.6843 223.574 61.4008C223.439 61.259 223.269 61.3724 223.166 61.5076C223.142 61.5337 223.125 61.566 223.117 61.6011C223.109 61.6362 223.11 61.6729 223.12 61.7073C223.131 61.7417 223.15 61.7727 223.176 61.797C223.203 61.8213 223.235 61.8381 223.269 61.8456Z" fill="#667085"/>
<path d="M200.05 63.008C199.987 63.0636 199.938 63.1335 199.907 63.212C199.876 63.2904 199.864 63.3753 199.872 63.4595C199.865 63.54 199.882 63.6207 199.92 63.6916C199.958 63.7625 200.016 63.8205 200.086 63.8586C200.219 63.9131 200.382 63.985 200.501 63.8586C200.842 63.4878 201.382 63.2894 201.464 62.694C201.483 62.5566 201.679 62.3669 201.531 62.3036C201.342 62.2251 201.303 62.4912 201.23 62.6329C201.211 62.6865 201.197 62.7421 201.189 62.7987C201.159 62.8968 201.099 62.9666 200.99 62.9382C200.704 62.8619 200.664 63.0364 200.655 63.2588C200.655 63.4311 200.567 63.5554 200.391 63.5554C200.215 63.5554 200.136 63.4311 200.099 63.2697C200.086 63.189 200.14 63.1062 200.05 63.008Z" fill="#667085"/>
<path d="M217.994 64.8116C218.262 64.7244 218.502 64.5608 218.466 64.1791C218.403 64.1944 218.352 64.1944 218.324 64.2206C218.254 64.2962 218.159 64.3437 218.057 64.3545C217.955 64.3653 217.853 64.3387 217.768 64.2795C217.609 64.153 217.695 63.9436 217.719 63.7626C217.758 63.4769 218.032 63.3264 218.103 63.0037C217.552 63.1956 217.182 64.0287 217.421 64.4888C217.532 64.7091 217.723 64.8966 217.994 64.8116Z" fill="#667085"/>
<path d="M203.773 66.6413C203.558 66.6413 203.264 67.0012 203.255 67.2825C203.255 67.4199 203.665 67.7187 203.854 67.7187C203.994 67.7187 204.326 67.2476 204.326 67.0644C204.326 66.8812 204.009 66.6435 203.773 66.6413Z" fill="#667085"/>
<path d="M226.597 63.0625C226.786 63.0778 227.091 62.7049 227.097 62.5152C227.104 62.3254 226.771 62.1117 226.537 62.1008C226.396 62.1008 225.96 62.537 225.996 62.694C226.072 63.032 226.436 62.923 226.597 63.0625Z" fill="#667085"/>
<path d="M216.017 68.4536C215.98 68.5041 215.927 68.5413 215.867 68.5597C215.808 68.5781 215.744 68.5768 215.685 68.5561C215.53 68.4907 215.547 68.338 215.537 68.2006C215.541 68.0514 215.598 67.9086 215.695 67.7972C215.721 67.7585 215.733 67.7119 215.729 67.6653C215.725 67.6187 215.704 67.5751 215.672 67.542C215.662 67.5308 215.65 67.5224 215.637 67.5176C215.623 67.5128 215.608 67.5118 215.594 67.5147C215.58 67.5176 215.567 67.5243 215.556 67.534C215.545 67.5438 215.537 67.5564 215.532 67.5704C215.419 67.8451 215.185 68.0632 215.204 68.4056C215.186 68.5224 215.207 68.6419 215.264 68.7453C215.32 68.8486 215.408 68.9301 215.515 68.977C215.73 69.0839 215.889 68.8832 216.045 68.7589C216.095 68.7124 216.136 68.6579 216.168 68.5975C216.215 68.5234 216.316 68.4405 216.228 68.3598C216.14 68.2791 216.077 68.3991 216.017 68.4536Z" fill="#667085"/>
<path d="M222.083 63.8542C222.36 64.0439 222.566 63.9458 222.772 63.7561C222.807 63.7337 222.833 63.6998 222.846 63.6601C222.859 63.6204 222.859 63.5773 222.845 63.538C222.802 63.4398 222.714 63.4747 222.647 63.4791C222.523 63.5031 222.405 63.5205 222.336 63.4006C222.267 63.2806 222.336 63.1825 222.398 63.0822C222.461 62.9819 222.493 62.9273 222.534 62.8467C222.574 62.766 222.607 62.7114 222.534 62.6613C222.461 62.6111 222.405 62.6613 222.353 62.718C222.174 62.8576 222.034 63.0426 221.948 63.2545C221.87 63.4835 221.832 63.6841 222.083 63.8542Z" fill="#667085"/>
<path d="M210.954 68.7175C210.823 68.8287 210.692 68.9007 210.525 68.7742C210.463 68.7224 210.422 68.6506 210.407 68.571C210.392 68.4914 210.405 68.409 210.443 68.338C210.49 68.1984 210.538 68.0567 210.574 67.9127C210.587 67.8626 210.585 67.7884 210.516 67.7753C210.495 67.7759 210.475 67.7816 210.456 67.7918C210.438 67.8021 210.423 67.8166 210.411 67.8342C210.271 68.1199 210.085 68.386 210.063 68.7197C210.061 68.7591 210.066 68.7987 210.078 68.8362C210.091 68.8736 210.11 68.9082 210.136 68.9377C210.424 69.3456 210.72 69.3237 211.07 68.8614C211.117 68.7982 211.203 68.7306 211.138 68.6542C211.074 68.5779 211.008 68.6739 210.954 68.7175Z" fill="#667085"/>
<path d="M246.38 66.3687C246.263 66.4037 246.157 66.4687 246.073 66.5573C245.988 66.6459 245.928 66.7552 245.897 66.8747C245.897 67.0208 246.199 67.3108 246.326 67.2978C246.453 67.2847 246.8 66.8485 246.781 66.7351C246.744 66.4952 246.549 66.4276 246.38 66.3687Z" fill="#667085"/>
<path d="M197.473 68.6586C197.136 68.8287 196.988 68.7393 196.975 68.3598C196.96 68.2221 196.987 68.0831 197.05 67.9607C197.089 67.8931 197.121 67.7972 197.02 67.7557C196.92 67.7143 196.911 67.8124 196.881 67.8691C196.778 68.0617 196.716 68.2742 196.699 68.4928C196.671 68.8789 196.838 69.1275 197.205 69.1471C197.336 69.1471 197.469 68.9923 197.598 68.8287C197.645 68.7676 197.729 68.6979 197.671 68.6106C197.613 68.5234 197.535 68.6281 197.473 68.6586Z" fill="#667085"/>
<path d="M204.202 62.9077C204.36 62.9884 204.451 62.8663 204.547 62.7681C204.612 62.7049 204.68 62.6438 204.749 62.5871C204.818 62.5304 204.893 62.4672 204.839 62.3887C204.755 62.2665 204.684 62.3887 204.624 62.4367C204.583 62.4851 204.527 62.5178 204.465 62.5293C204.403 62.5408 204.339 62.5304 204.283 62.4999C204.129 62.417 204.167 62.2818 204.174 62.1357C204.187 61.9176 204.388 61.7737 204.32 61.5011C204.18 61.6304 204.067 61.787 203.987 61.9616C203.908 62.1362 203.864 62.3252 203.858 62.5173C203.856 62.7267 204.034 62.8292 204.202 62.9077Z" fill="#667085"/>
<path d="M218.303 68.6477C218.262 68.6784 218.213 68.6969 218.162 68.7012C218.111 68.7054 218.06 68.6952 218.015 68.6717C217.891 68.5932 217.976 68.4929 218.015 68.3991C218.032 68.3572 218.047 68.3143 218.058 68.2704C218.073 68.1897 218.082 68.1003 217.991 68.0523C217.901 68.0044 217.841 68.0785 217.805 68.1505C217.725 68.2886 217.659 68.4347 217.609 68.5866C217.598 68.645 217.598 68.7053 217.611 68.7634C217.624 68.8216 217.649 68.8763 217.684 68.9241C217.719 68.9718 217.763 69.0115 217.814 69.0406C217.866 69.0696 217.922 69.0873 217.981 69.0926C218.148 69.0613 218.306 68.9912 218.442 68.8876C218.539 68.8004 218.657 68.6695 218.582 68.567C218.476 68.4231 218.388 68.6063 218.303 68.6477Z" fill="#667085"/>
<path d="M215.063 65.2281C215.103 65.2103 215.135 65.1785 215.154 65.1385C215.173 65.0985 215.177 65.0529 215.166 65.01C215.131 64.9032 215.041 64.9424 214.966 64.9533C214.651 64.9533 214.561 64.8247 214.685 64.5368C214.709 64.4845 214.743 64.4365 214.762 64.3841C214.782 64.3318 214.807 64.2468 214.724 64.2097C214.696 64.2009 214.666 64.203 214.64 64.2155C214.614 64.228 214.593 64.2501 214.582 64.2773C214.507 64.4147 214.449 64.5652 214.367 64.7135C214.202 65.0013 214.367 65.1976 214.552 65.3677C214.737 65.5378 214.902 65.3045 215.063 65.2281Z" fill="#667085"/>
<path d="M201.522 68.4536C201.532 68.4267 201.533 68.3971 201.525 68.3695C201.517 68.3419 201.5 68.3178 201.477 68.3009C201.419 68.2639 201.369 68.3009 201.333 68.3467C201.255 68.4457 201.204 68.5635 201.185 68.6886C201.166 68.8136 201.179 68.9416 201.224 69.0599C201.264 69.1907 201.352 69.3259 201.507 69.3107C201.747 69.2867 201.859 69.0926 201.975 68.8091C201.578 68.9356 201.423 68.8156 201.522 68.4536Z" fill="#667085"/>
<path d="M203.792 72.2417L204.118 72.4554L204.384 72.0564L203.978 71.7728L203.783 72.0564L203.444 71.8295L203.197 72.2439L203.601 72.534L203.792 72.2417Z" fill="#667085"/>
<path d="M205.408 75.1619L205.086 74.9307L204.837 75.332L205.242 75.6395L205.418 75.3494L205.74 75.5806L205.996 75.151L205.599 74.8675L205.408 75.1619Z" fill="#667085"/>
<path d="M211.879 72.667L211.471 72.4053L211.246 72.8371L211.655 73.0901L211.879 72.667Z" fill="#667085"/>
<path d="M215.09 72.1349L214.674 71.8666L214.442 72.2962L214.844 72.5667L215.09 72.1349Z" fill="#667085"/>
<path d="M214.91 72.896L215.241 73.1097L215.49 72.6953L215.082 72.4184L214.91 72.7084L214.569 72.5034L214.316 72.9309L214.715 73.1991L214.91 72.896Z" fill="#667085"/>
<path d="M217.154 72.6626C217.12 72.4446 217.094 72.2723 217.075 72.1414C217.06 72.0556 217.051 71.9689 217.047 71.8819C217.044 71.8154 217.058 71.7492 217.087 71.6897C217.117 71.6301 217.16 71.5792 217.214 71.5417L217.253 71.5133L216.968 71.0335L216.923 71.0641C216.849 71.1308 216.791 71.2138 216.754 71.3069C216.717 71.3999 216.701 71.5004 216.708 71.6006C216.708 71.6202 216.708 71.6616 216.854 72.7259C216.91 73.0661 216.948 73.3191 216.974 73.4979C217.006 73.7334 217.013 73.801 217.013 73.8185C217.011 73.859 217 73.8986 216.98 73.9336C216.959 73.9686 216.931 73.998 216.897 74.0191C216.782 74.089 216.649 74.1238 216.515 74.1194H216.206C216.168 74.114 216.131 74.1 216.098 74.0786C216.065 74.0571 216.038 74.0286 216.017 73.9951C215.935 73.8987 215.88 73.781 215.858 73.6549V73.6135H215.73L215.717 73.6462C215.633 73.8643 215.517 73.9842 215.363 73.9842C215.271 73.9842 215.148 73.9537 215.148 73.6833V73.6462L215.039 73.6091L215.017 73.6418C214.934 73.7829 214.83 73.9102 214.708 74.0191C214.57 74.0997 214.411 74.1369 214.251 74.126C214.216 74.129 214.18 74.123 214.148 74.1085C214.115 74.094 214.087 74.0716 214.065 74.0431C214.046 74.0072 214.031 73.9692 214.022 73.9297C214.005 73.8662 213.993 73.8012 213.988 73.7356V73.7029L213.882 73.668L213.859 73.6985C213.796 73.8139 213.707 73.9123 213.599 73.9855C213.491 74.0587 213.368 74.1046 213.239 74.1194H212.844C212.697 74.1244 212.55 74.1178 212.404 74.0998C212.354 74.0986 212.305 74.0845 212.262 74.059C212.219 74.0334 212.183 73.9972 212.157 73.9537H212.327C212.412 73.9533 212.496 73.9468 212.58 73.9341H212.614L212.722 73.5219H212.655C212.391 73.5219 212.2 73.5219 212.074 73.5023C211.918 73.4836 211.763 73.4523 211.612 73.4085C211.456 73.3627 211.286 73.3016 211.108 73.2297C210.91 73.1346 210.703 73.0614 210.49 73.0116C210.34 73.0068 210.194 73.0599 210.08 73.1602C209.967 73.2605 209.895 73.4005 209.879 73.5524L209.862 73.6353L209.941 73.6157C210.065 73.5808 210.192 73.5574 210.321 73.5459C210.474 73.5456 210.625 73.5798 210.763 73.6462L211.093 73.7683C211.029 73.7858 210.962 73.8054 210.894 73.8294C210.763 73.873 210.623 73.9253 210.477 73.9842C210.301 74.0645 210.111 74.109 209.917 74.1151H209.501C209.439 74.1151 209.267 74.1151 208.988 74.1391C209.098 74.0821 209.199 74.0085 209.287 73.921C209.394 73.8022 209.453 73.6463 209.452 73.4848C209.454 73.3429 209.405 73.2052 209.312 73.0988C209.27 73.0477 209.216 73.0067 209.156 72.9788C209.096 72.9509 209.031 72.9368 208.965 72.9374C208.686 72.9623 208.423 73.0761 208.212 73.2624C207.899 73.5131 207.621 73.8067 207.388 74.1347H207.079C206.954 74.1347 206.864 74.006 206.841 73.7509V73.7182L206.735 73.6833L206.714 73.7138C206.514 73.9929 206.33 74.1347 206.163 74.1347H205.899C205.868 74.1386 205.838 74.1332 205.811 74.1192C205.783 74.1052 205.761 74.0832 205.746 74.0562C205.703 73.9604 205.679 73.8564 205.678 73.7509V73.7182L205.573 73.6833L205.551 73.7138C205.354 73.9929 205.167 74.1347 205 74.1347H204.571C204.553 74.1347 204.468 74.1129 204.401 73.6985L204.186 72.39L204.116 72.5274C204.035 72.6698 203.99 72.83 203.985 72.9941V73.0138C203.709 73.1305 203.478 73.3358 203.328 73.5982C203.256 73.7108 203.206 73.8368 203.182 73.969C203.182 74.0802 203.322 74.1369 203.367 74.1543C203.481 74.1993 203.603 74.2216 203.725 74.2198C203.841 74.2137 203.951 74.1684 204.038 74.0911L204.152 73.982C204.232 74.4182 204.367 74.6167 204.581 74.6167H205.01C205.104 74.6152 205.196 74.5892 205.277 74.541C205.357 74.4929 205.425 74.4243 205.472 74.3419C205.491 74.3891 205.515 74.4337 205.545 74.4749C205.62 74.5709 205.684 74.6167 205.759 74.6167H206.188C206.282 74.6149 206.373 74.5886 206.453 74.5405C206.534 74.4923 206.601 74.4239 206.647 74.3419C206.669 74.3931 206.699 74.4397 206.738 74.4793C206.774 74.5215 206.818 74.5556 206.868 74.5793C206.918 74.603 206.972 74.6157 207.027 74.6167H207.201C207.186 74.6734 207.175 74.7235 207.162 74.7628C207.15 74.802 207.137 74.8653 207.128 74.898V74.9176L207.263 75.1902L207.265 75.0419C207.296 74.8926 207.341 74.7466 207.398 74.6058H209.922C210.109 74.5899 210.29 74.531 210.452 74.4335C210.615 74.3375 210.741 74.2656 210.838 74.2154L211.029 74.1151C211.284 74.0162 211.554 73.961 211.827 73.9515H211.883C211.855 74.0371 211.838 74.1257 211.831 74.2154C211.833 74.2905 211.859 74.3629 211.906 74.4208C211.953 74.4786 212.018 74.5185 212.091 74.5338C212.338 74.5874 212.591 74.6116 212.844 74.6058H213.299C213.396 74.5967 213.489 74.564 213.571 74.5105C213.653 74.4569 213.72 74.3841 213.769 74.2983C213.81 74.3808 213.866 74.4547 213.934 74.5164C214.024 74.5802 214.133 74.611 214.243 74.6036C214.384 74.6104 214.524 74.5788 214.648 74.512C214.697 74.4817 214.741 74.445 214.779 74.4029C214.817 74.3672 214.853 74.3294 214.887 74.2895C214.916 74.363 214.967 74.4253 215.033 74.4679C215.098 74.5105 215.176 74.5313 215.253 74.5273C215.361 74.52 215.465 74.4826 215.553 74.4191C215.642 74.3555 215.711 74.2684 215.753 74.1674C215.787 74.2558 215.832 74.3394 215.886 74.416C215.915 74.4663 215.954 74.509 216.002 74.5405C216.05 74.572 216.104 74.5914 216.161 74.597H216.558C217.024 74.597 217.26 74.2154 217.26 73.463C217.256 73.3701 217.246 73.2775 217.23 73.186C217.214 73.0574 217.187 72.8829 217.154 72.6626ZM209.111 73.6898C209.111 73.6898 209.078 73.7749 208.596 73.9493C208.298 74.0505 207.987 74.1064 207.673 74.1151C207.997 73.7029 208.342 73.4935 208.703 73.4935C208.801 73.4896 208.899 73.5098 208.988 73.5524C209.07 73.5946 209.111 73.6404 209.111 73.6898ZM204.099 73.6418C204.051 73.6643 203.999 73.6762 203.946 73.6767C203.833 73.6804 203.721 73.6679 203.611 73.6397C203.715 73.4827 203.866 73.3635 204.041 73.2994L204.099 73.6418Z" fill="#667085"/>
<path d="M217.981 72.2679C217.959 72.0804 217.946 71.8143 217.942 71.4784V71.2603L217.848 71.4501C217.727 71.6584 217.653 71.8917 217.633 72.1327C217.63 72.1777 217.63 72.2229 217.633 72.2679L217.813 73.6724C217.837 73.8421 217.849 74.0134 217.85 74.1849C217.845 74.2961 217.833 74.4068 217.813 74.5164V74.56L217.961 74.6101L217.976 74.5578C218.062 74.3001 218.118 74.0329 218.142 73.7618C218.139 73.6027 218.127 73.4439 218.105 73.2864L217.981 72.2679Z" fill="#667085"/>
<path d="M221.866 72.8611L222.188 73.0923L222.452 72.6561L222.038 72.3813L221.856 72.6757L221.525 72.4424L221.285 72.8742L221.69 73.149L221.866 72.8611Z" fill="#667085"/>
<path d="M223.289 75.1619L222.967 74.9307L222.718 75.332L223.121 75.6395L223.297 75.3494L223.621 75.5806L223.877 75.151L223.478 74.8675L223.289 75.1619Z" fill="#667085"/>
<path d="M224.949 72.0847L225.276 72.305L225.52 71.8601L225.108 71.5766L224.936 71.8884L224.582 71.6703L224.344 72.0847L224.76 72.3726L224.949 72.0847Z" fill="#667085"/>
<path d="M227.655 71.2211L227.971 71.4588L228.241 71.0379L227.838 70.7326L227.647 71.0205L227.325 70.7827L227.054 71.2037L227.464 71.509L227.655 71.2211Z" fill="#667085"/>
<path d="M226.636 73.3103C226.726 73.2514 226.81 73.1904 226.891 73.125C226.997 73.0407 227.098 72.9504 227.194 72.8545C227.269 72.7738 227.38 72.6364 227.537 72.4467C227.651 72.2984 227.694 72.2941 227.698 72.2941C227.702 72.2941 227.818 72.329 227.861 72.7673V72.8196L228.063 72.7935V72.7433C227.998 72.1196 227.883 71.8317 227.696 71.8317C227.636 71.8317 227.576 71.8906 227.505 72.028C227.391 72.2805 227.228 72.5071 227.026 72.6944C226.824 72.8817 226.587 73.0259 226.329 73.1184C226.217 73.1484 226.112 73.2044 226.024 73.282C225.96 73.3615 225.917 73.4571 225.9 73.559L225.887 73.6113H225.939C226.215 73.6724 226.522 73.7465 226.846 73.8294C226.812 73.8294 226.775 73.8512 226.737 73.8643C226.627 73.9013 226.505 73.9493 226.374 74.006C226.227 74.0747 226.066 74.1076 225.904 74.102H225.514C225.426 74.0996 225.34 74.0764 225.263 74.0344C225.397 73.8648 225.479 73.6582 225.497 73.4412C225.497 73.2947 225.462 73.1504 225.396 73.0203C225.319 72.8698 225.228 72.8022 225.123 72.8022C224.924 72.8022 224.713 73.005 224.48 73.4194C224.388 73.567 224.337 73.7375 224.334 73.9122C224.335 73.9503 224.339 73.9883 224.347 74.0257C224.255 74.0868 224.147 74.1166 224.038 74.1107H223.787C223.756 74.1146 223.726 74.1092 223.699 74.0952C223.671 74.0812 223.649 74.0593 223.634 74.0322C223.593 73.9356 223.57 73.8321 223.566 73.7269V73.6942L223.46 73.6593L223.437 73.6898C223.239 73.9689 223.053 74.1107 222.888 74.1107H222.458C222.343 73.6963 222.201 73.4957 222.029 73.4957C221.858 73.4957 221.705 73.6702 221.564 74.0344C221.538 74.1116 221.52 74.1912 221.51 74.2721C221.51 74.4182 221.581 74.5927 221.916 74.5927H222.18C222.181 74.5992 222.181 74.6058 222.18 74.6123C222.18 74.6341 222.18 74.6559 222.18 74.6755C222.18 74.8435 222.057 74.9983 221.815 75.1379C221.552 75.2843 221.256 75.3594 220.957 75.356C220.764 75.3629 220.574 75.3096 220.412 75.2033C220.349 75.1643 220.298 75.1097 220.262 75.0449C220.227 74.98 220.208 74.9069 220.208 74.8326C220.231 74.58 220.321 74.3387 220.47 74.1347L220.495 74.0954L220.36 73.9886L220.328 74.0322C220.092 74.3213 219.954 74.68 219.935 75.055C219.934 75.1672 219.956 75.2785 219.999 75.3817C220.042 75.485 220.106 75.5779 220.186 75.6547C220.268 75.731 220.362 75.7909 220.465 75.8314C220.574 75.8756 220.69 75.8979 220.806 75.8968C221.1 75.8899 221.388 75.8089 221.643 75.6613C221.856 75.5698 222.041 75.4232 222.18 75.236C222.32 75.0488 222.408 74.8277 222.437 74.5949H222.888C222.981 74.593 223.072 74.5668 223.153 74.5187C223.233 74.4705 223.3 74.4021 223.347 74.3201C223.367 74.3668 223.391 74.4114 223.42 74.4531C223.495 74.5491 223.559 74.5949 223.634 74.5949H224.063C224.315 74.5917 224.559 74.506 224.759 74.3506C224.977 74.5086 225.239 74.594 225.507 74.5949H225.936C226.128 74.5799 226.314 74.5202 226.479 74.4204C226.614 74.3419 226.735 74.2743 226.842 74.2241C226.949 74.1739 227.044 74.1347 227.121 74.1063C227.505 73.9836 227.907 73.9254 228.309 73.9341H228.417L228.578 73.5742H228.164C227.642 73.5869 227.124 73.4973 226.636 73.3103ZM225.231 73.6331C225.231 73.6484 225.213 73.7269 224.853 73.8512C224.707 73.7683 224.638 73.6854 224.638 73.5982C224.638 73.5851 224.649 73.5415 224.756 73.4674C224.825 73.4117 224.909 73.3796 224.997 73.3758C225.03 73.3776 225.062 73.3865 225.091 73.4019C225.12 73.4173 225.146 73.4389 225.166 73.4652C225.205 73.5125 225.228 73.5715 225.231 73.6331ZM222.036 74.1194C221.883 74.1194 221.789 74.0933 221.789 74.0496C221.789 74.006 221.817 73.9668 221.864 73.9668C221.911 73.9668 221.986 74.0191 222.044 74.1194H222.036Z" fill="#667085"/>
<path d="M230.91 72.2417L231.238 72.4554L231.502 72.0564L231.099 71.7728L230.901 72.0564L230.564 71.8295L230.315 72.2439L230.721 72.534L230.91 72.2417Z" fill="#667085"/>
<path d="M232.648 72.6125C232.478 72.6125 232.347 72.7826 232.249 73.1271C232.195 73.2662 232.166 73.4139 232.163 73.5633C232.161 73.6126 232.171 73.6616 232.19 73.7069C232.209 73.7521 232.238 73.7925 232.275 73.825C232.352 73.8926 232.452 73.9277 232.553 73.9232C232.706 73.9232 232.839 73.8228 232.957 73.6222C232.979 73.6386 232.997 73.6599 233.009 73.6845C233.021 73.7091 233.028 73.7363 233.028 73.764C233.028 73.8054 232.985 73.8904 232.71 73.9973C232.522 74.0802 232.318 74.1204 232.114 74.1151H231.684C231.667 74.1151 231.579 74.0933 231.515 73.6789L231.3 72.3704L231.23 72.5078C231.149 72.65 231.103 72.8102 231.097 72.9745V72.9941C230.821 73.1116 230.591 73.3167 230.44 73.5786C230.368 73.6909 230.319 73.8171 230.296 73.9493C230.296 74.0605 230.434 74.1173 230.481 74.1347C230.595 74.1799 230.717 74.2022 230.839 74.2001C230.955 74.1938 231.065 74.1485 231.152 74.0714L231.266 73.9624C231.345 74.3986 231.481 74.597 231.684 74.597H232.114C232.427 74.5955 232.732 74.4906 232.983 74.2983C233.07 74.2268 233.138 74.1349 233.182 74.0303C233.227 73.9258 233.245 73.8119 233.236 73.6985C233.235 73.4483 233.173 73.2022 233.053 72.9832C232.92 72.7346 232.798 72.6125 232.648 72.6125ZM232.648 73.3234C232.622 73.3481 232.587 73.3621 232.551 73.3627C232.521 73.3627 232.47 73.3627 232.47 73.2427C232.47 73.1948 232.487 73.186 232.521 73.186C232.535 73.1831 232.55 73.1831 232.564 73.186L232.631 73.2187L232.682 73.2536C232.673 73.2747 232.658 73.2928 232.639 73.306L232.648 73.3234ZM231.215 73.6418C231.168 73.6643 231.116 73.6762 231.064 73.6767C230.952 73.6807 230.839 73.6682 230.73 73.6396C230.833 73.4819 230.983 73.3625 231.159 73.2994L231.215 73.6418Z" fill="#667085"/>
<path d="M232.564 72.0106L232.901 72.2177L233.148 71.7816L232.734 71.5373L232.551 71.8077L232.219 71.6136L231.98 72.0345L232.373 72.3028L232.564 72.0106Z" fill="#667085"/>
<path d="M238.25 73.7095C238.252 73.4879 238.203 73.269 238.106 73.0705L238.065 72.9919L237.851 73.3278C237.822 73.3725 237.806 73.4248 237.806 73.4783C237.806 73.5369 237.824 73.5941 237.857 73.6418L237.988 73.8599C238.004 73.8814 238.013 73.9073 238.014 73.9341C238.014 73.9864 237.943 74.0322 237.883 74.0606C237.796 74.103 237.7 74.1232 237.604 74.1195H237.132C237.033 74.1195 236.918 74.1195 236.787 74.1325H236.626C236.963 73.9384 237.134 73.716 237.134 73.4783C237.139 73.3342 237.091 73.1935 236.999 73.0835C236.958 73.0311 236.905 72.989 236.845 72.9607C236.785 72.9323 236.72 72.9184 236.654 72.92C236.291 72.92 235.875 73.1795 235.381 73.7138C235.394 73.6113 235.403 73.5175 235.411 73.4325C235.424 73.2994 235.431 73.1948 235.431 73.1075C235.428 72.9267 235.416 72.7462 235.394 72.5667C235.368 72.3486 235.332 72.0782 235.287 71.7925C235.288 71.7406 235.302 71.6898 235.327 71.6446C235.352 71.5993 235.388 71.561 235.431 71.533L235.467 71.5046L235.139 70.9899L235.096 71.0619C235.006 71.2042 234.956 71.3684 234.95 71.5373C234.95 71.6049 234.989 71.8492 235.066 72.2854C235.136 72.6078 235.176 72.9365 235.184 73.2667C235.184 73.8316 235.057 74.1195 234.806 74.1195H234.377C234.178 74.1195 234.073 73.9995 234.049 73.7443L233.834 71.3454L233.755 71.4392C233.631 71.5544 233.547 71.7075 233.517 71.8754C233.517 71.9124 233.517 72.0455 233.611 72.7477C233.677 73.3452 233.721 73.7487 233.744 73.9581C233.774 74.379 233.991 74.6123 234.369 74.6123H234.823C234.794 74.7063 234.777 74.8038 234.772 74.9024V74.9176L234.907 75.1902L234.944 75.0419C234.97 74.8914 235.014 74.7448 235.077 74.6058H237.6C238.031 74.6058 238.25 74.3005 238.25 73.7095ZM236.403 73.4914C236.5 73.49 236.596 73.5164 236.679 73.5677C236.778 73.6244 236.787 73.6593 236.787 73.6702C236.787 73.6811 236.772 73.7661 236.298 73.9341C235.993 74.0392 235.676 74.1008 235.356 74.1173H235.338C235.461 73.9445 235.615 73.7965 235.791 73.6811C235.973 73.5605 236.185 73.4954 236.403 73.4935V73.4914Z" fill="#667085"/>
<path d="M237.595 75.2317L237.98 75.5239L238.244 75.0943L237.842 74.8086L237.595 75.2317Z" fill="#667085"/>
<path fill-rule="evenodd" clip-rule="evenodd" d="M179.286 33C180.454 33 181.4 33.9482 181.4 35.1178L181.4 163.882C181.4 165.052 180.454 166 179.286 166C178.119 166 177.173 165.052 177.173 163.882L177.173 35.1178C177.173 33.9482 178.119 33 179.286 33Z" fill="#21AB82"/>
<defs>
<linearGradient id="paint0_linear_1443_49442" x1="100" y1="200" x2="158.824" y2="-35.2941" gradientUnits="userSpaceOnUse">
<stop stop-color="#1D2939"/>
<stop offset="1" stop-color="#344054"/>
</linearGradient>
</defs>
</svg>
