<svg width="300" height="300" viewBox="0 0 149 35" fill="none" xmlns="http://www.w3.org/2000/svg">
<path fillRule="evenodd" clipRule="evenodd" d="M132.399 0H125.519V35H132.399C137.499 35 141.562 33.4981 144.512 30.431C147.495 27.3301 148.968 22.9936 149 17.5034L149 17.4965C148.968 12.0081 147.496 7.6867 144.512 4.61731C141.562 1.51832 137.5 0 132.399 0ZM130.999 29.5934V5.40657H132.957C136.263 5.40657 138.726 6.54407 140.431 8.76811L140.437 8.77472C142.2 11.0052 143.133 13.8982 143.194 17.5C143.133 21.1015 142.2 24.0132 140.434 26.2773C138.729 28.47 136.266 29.5934 132.957 29.5934H130.999Z" fill="#FDB022"/>
<path d="M120.097 0H114.617V35H120.097V0Z" fill="#FDB022"/>
<path d="M90.5547 0C88.7306 0 87.1676 0.146817 85.8747 0.449237C84.5312 0.763481 83.3276 1.44449 82.2684 2.47672L82.2642 2.48091C80.6823 4.05546 79.9072 6.13205 79.9072 8.65098V35H99.5276V29.5934H85.3871V19.623H96.132V14.2164H85.3871V9.2796C85.3871 7.91514 85.7747 6.98724 86.4678 6.38466C87.1798 5.7656 88.3081 5.40657 89.95 5.40657H99.5276V0H90.5547Z" fill="white"/>
<path fillRule="evenodd" clipRule="evenodd" d="M76.8175 0H55.2436V5.40658H63.2906V35H68.7705V5.40658H76.8175V0Z" fill="white"/>
<path d="M40.708 0C37.1534 0 34.2109 1.284 31.928 3.86066L31.9253 3.86371C29.688 6.42553 28.5721 9.53154 28.5721 13.148V35H33.8194V22.261C34.6324 21.312 35.5224 20.6524 36.4873 20.2619C37.5498 19.8444 38.9492 19.623 40.708 19.623H43.7238V14.2164H40.708C37.9086 14.2164 35.5953 14.9123 33.8194 16.3481V13.5349C33.8194 10.5778 34.4715 8.55164 35.6551 7.31959C36.8968 6.05929 38.5613 5.40657 40.708 5.40657H46.4337V35H51.9136V0H40.708Z" fill="white"/>
<path d="M16.6014 0C11.4989 0 7.42183 1.51911 4.44158 4.61729C1.4886 7.68711 0.031612 12.0085 0 17.4965L3.97061e-05 17.5034C0.0316537 22.9919 1.48868 27.3276 4.43942 30.4288L4.44372 30.4333C7.42427 33.4981 11.5006 35 16.6014 35H24.3184V15.1835H14.0475V20.5901H18.8385V29.5934H16.0432C12.7362 29.5934 10.256 28.4711 8.51958 26.2769C6.78468 24.0132 5.86747 21.102 5.8056 17.5C5.8675 13.8963 6.78549 11.0021 8.51942 8.77159C10.2569 6.54406 12.7373 5.40657 16.0432 5.40657H22.5043V0H16.6014Z" fill="white"/>
</svg>
